<?xml version="1.0" encoding="UTF-8" standalone="no"?>
<!DOCTYPE svg PUBLIC "-//W3C//DTD SVG 1.1//EN"
 "http://www.w3.org/Graphics/SVG/1.1/DTD/svg11.dtd">
<!-- Generated by graphviz version 2.46.0 (20210119.1425)
 -->
<!-- Title: dependencies Pages: 1 -->
<svg width="4140pt" height="284pt"
 viewBox="0.00 0.00 4140.00 284.00" xmlns="http://www.w3.org/2000/svg" xmlns:xlink="http://www.w3.org/1999/xlink">
<g id="graph0" class="graph" transform="scale(1 1) rotate(0) translate(4 280)">
<title>dependencies</title>
<polygon fill="white" stroke="transparent" points="-4,4 -4,-280 4136,-280 4136,4 -4,4"/>
<text text-anchor="start" x="2045.01" y="-42.4" font-family="sans-serif" font-weight="bold" font-size="14.00">Legend</text>
<polygon fill="#ffffb3" stroke="transparent" points="1832,-10 1832,-30 1852,-30 1852,-10 1832,-10"/>
<text text-anchor="start" x="1855.63" y="-15.4" font-family="sans-serif" font-size="14.00"> &#160;Declarations</text>
<polygon fill="#8dd3c7" stroke="transparent" points="1945,-10 1945,-30 1965,-30 1965,-10 1945,-10"/>
<text text-anchor="start" x="1968.73" y="-15.4" font-family="sans-serif" font-size="14.00"> &#160;Module</text>
<polygon fill="#80b1d3" stroke="transparent" points="2031,-10 2031,-30 2051,-30 2051,-10 2031,-10"/>
<text text-anchor="start" x="2054.78" y="-15.4" font-family="sans-serif" font-size="14.00"> &#160;Bootstrap</text>
<polygon fill="#fdb462" stroke="transparent" points="2128,-10 2128,-30 2148,-30 2148,-10 2128,-10"/>
<text text-anchor="start" x="2151.67" y="-15.4" font-family="sans-serif" font-size="14.00"> &#160;Providers</text>
<polygon fill="#fb8072" stroke="transparent" points="2224,-10 2224,-30 2244,-30 2244,-10 2224,-10"/>
<text text-anchor="start" x="2247.73" y="-15.4" font-family="sans-serif" font-size="14.00"> &#160;Exports</text>
<g id="clust1" class="cluster">
<title>cluster_AppModule</title>
<polygon fill="none" stroke="black" stroke-dasharray="1,5" points="8,-70 8,-268 4124,-268 4124,-70 8,-70"/>
</g>
<g id="clust25" class="cluster">
<title>cluster_AppModule_bootstrap</title>
<polygon fill="none" stroke="black" points="1967,-208 1967,-260 2091,-260 2091,-208 1967,-208"/>
</g>
<g id="clust26" class="cluster">
<title>cluster_AppModule_providers</title>
<polygon fill="none" stroke="black" points="3581,-78 3581,-130 4116,-130 4116,-78 3581,-78"/>
</g>
<g id="clust23" class="cluster">
<title>cluster_AppModule_imports</title>
<polygon fill="none" stroke="black" points="3429,-78 3429,-130 3573,-130 3573,-78 3429,-78"/>
</g>
<g id="clust2" class="cluster">
<title>cluster_AppModule_declarations</title>
<polygon fill="none" stroke="black" points="16,-78 16,-130 3421,-130 3421,-78 16,-78"/>
</g>
<!-- AboutUsComponent -->
<g id="node1" class="node">
<title>AboutUsComponent</title>
<polygon fill="#ffffb3" stroke="black" points="3412.88,-122 3281.12,-122 3281.12,-86 3412.88,-86 3412.88,-122"/>
<text text-anchor="middle" x="3347" y="-99.8" font-family="Times,serif" font-size="14.00">AboutUsComponent</text>
</g>
<!-- AppModule -->
<g id="node21" class="node">
<title>AppModule</title>
<polygon fill="#8dd3c7" stroke="black" points="2070.66,-187 2067.66,-191 2046.66,-191 2043.66,-187 1987.34,-187 1987.34,-151 2070.66,-151 2070.66,-187"/>
<text text-anchor="middle" x="2029" y="-164.8" font-family="Times,serif" font-size="14.00">AppModule</text>
</g>
<!-- AboutUsComponent&#45;&gt;AppModule -->
<g id="edge1" class="edge">
<title>AboutUsComponent&#45;&gt;AppModule</title>
<path fill="none" stroke="black" d="M3347,-122.03C3347,-142.77 3347,-174 3347,-174 3347,-174 2080.99,-174 2080.99,-174"/>
<polygon fill="black" stroke="black" points="2080.99,-170.5 2070.99,-174 2080.99,-177.5 2080.99,-170.5"/>
</g>
<!-- AdministratorComponent -->
<g id="node2" class="node">
<title>AdministratorComponent</title>
<polygon fill="#ffffb3" stroke="black" points="3262.87,-122 3103.13,-122 3103.13,-86 3262.87,-86 3262.87,-122"/>
<text text-anchor="middle" x="3183" y="-99.8" font-family="Times,serif" font-size="14.00">AdministratorComponent</text>
</g>
<!-- AdministratorComponent&#45;&gt;AppModule -->
<g id="edge2" class="edge">
<title>AdministratorComponent&#45;&gt;AppModule</title>
<path fill="none" stroke="black" d="M3183,-122.31C3183,-142.15 3183,-171 3183,-171 3183,-171 2080.75,-171 2080.75,-171"/>
<polygon fill="black" stroke="black" points="2080.75,-167.5 2070.75,-171 2080.75,-174.5 2080.75,-167.5"/>
</g>
<!-- AppComponent -->
<g id="node3" class="node">
<title>AppComponent</title>
<polygon fill="#ffffb3" stroke="black" points="3084.94,-122 2979.06,-122 2979.06,-86 3084.94,-86 3084.94,-122"/>
<text text-anchor="middle" x="3032" y="-99.8" font-family="Times,serif" font-size="14.00">AppComponent</text>
</g>
<!-- AppComponent&#45;&gt;AppModule -->
<g id="edge3" class="edge">
<title>AppComponent&#45;&gt;AppModule</title>
<path fill="none" stroke="black" d="M3032,-122.17C3032,-141.09 3032,-168 3032,-168 3032,-168 2080.82,-168 2080.82,-168"/>
<polygon fill="black" stroke="black" points="2080.82,-164.5 2070.82,-168 2080.82,-171.5 2080.82,-164.5"/>
</g>
<!-- AppointmentCreateComponent -->
<g id="node4" class="node">
<title>AppointmentCreateComponent</title>
<polygon fill="#ffffb3" stroke="black" points="2960.75,-122 2769.25,-122 2769.25,-86 2960.75,-86 2960.75,-122"/>
<text text-anchor="middle" x="2865" y="-99.8" font-family="Times,serif" font-size="14.00">AppointmentCreateComponent</text>
</g>
<!-- AppointmentCreateComponent&#45;&gt;AppModule -->
<g id="edge4" class="edge">
<title>AppointmentCreateComponent&#45;&gt;AppModule</title>
<path fill="none" stroke="black" d="M2833.04,-122.02C2833.04,-139.37 2833.04,-163 2833.04,-163 2833.04,-163 2080.82,-163 2080.82,-163"/>
<polygon fill="black" stroke="black" points="2080.82,-159.5 2070.82,-163 2080.82,-166.5 2080.82,-159.5"/>
</g>
<!-- AppointmentCreateComponent&#45;&gt;AppModule -->
<g id="edge5" class="edge">
<title>AppointmentCreateComponent&#45;&gt;AppModule</title>
<path fill="none" stroke="black" d="M2896.96,-122.3C2896.96,-140.27 2896.96,-165 2896.96,-165 2896.96,-165 2080.86,-165 2080.86,-165"/>
<polygon fill="black" stroke="black" points="2080.86,-161.5 2070.86,-165 2080.86,-168.5 2080.86,-161.5"/>
</g>
<!-- AppointmentEditComponent -->
<g id="node5" class="node">
<title>AppointmentEditComponent</title>
<polygon fill="#ffffb3" stroke="black" points="2751.05,-122 2572.95,-122 2572.95,-86 2751.05,-86 2751.05,-122"/>
<text text-anchor="middle" x="2662" y="-99.8" font-family="Times,serif" font-size="14.00">AppointmentEditComponent</text>
</g>
<!-- AppointmentEditComponent&#45;&gt;AppModule -->
<g id="edge6" class="edge">
<title>AppointmentEditComponent&#45;&gt;AppModule</title>
<path fill="none" stroke="black" d="M2662,-122.03C2662,-138.4 2662,-160 2662,-160 2662,-160 2081.02,-160 2081.02,-160"/>
<polygon fill="black" stroke="black" points="2081.02,-156.5 2071.02,-160 2081.02,-163.5 2081.02,-156.5"/>
</g>
<!-- ContactUsComponent -->
<g id="node6" class="node">
<title>ContactUsComponent</title>
<polygon fill="#ffffb3" stroke="black" points="2555.43,-122 2414.57,-122 2414.57,-86 2555.43,-86 2555.43,-122"/>
<text text-anchor="middle" x="2485" y="-99.8" font-family="Times,serif" font-size="14.00">ContactUsComponent</text>
</g>
<!-- ContactUsComponent&#45;&gt;AppModule -->
<g id="edge7" class="edge">
<title>ContactUsComponent&#45;&gt;AppModule</title>
<path fill="none" stroke="black" d="M2485,-122.24C2485,-137.57 2485,-157 2485,-157 2485,-157 2080.68,-157 2080.68,-157"/>
<polygon fill="black" stroke="black" points="2080.68,-153.5 2070.68,-157 2080.68,-160.5 2080.68,-153.5"/>
</g>
<!-- DashbordAppoinmentComponent -->
<g id="node7" class="node">
<title>DashbordAppoinmentComponent</title>
<polygon fill="#ffffb3" stroke="black" points="2396.75,-122 2191.25,-122 2191.25,-86 2396.75,-86 2396.75,-122"/>
<text text-anchor="middle" x="2294" y="-99.8" font-family="Times,serif" font-size="14.00">DashbordAppoinmentComponent</text>
</g>
<!-- DashbordAppoinmentComponent&#45;&gt;AppModule -->
<g id="edge8" class="edge">
<title>DashbordAppoinmentComponent&#45;&gt;AppModule</title>
<path fill="none" stroke="black" d="M2294,-122.05C2294,-136.37 2294,-154 2294,-154 2294,-154 2080.7,-154 2080.7,-154"/>
<polygon fill="black" stroke="black" points="2080.7,-150.5 2070.7,-154 2080.7,-157.5 2080.7,-150.5"/>
</g>
<!-- DoctorsComponent -->
<g id="node8" class="node">
<title>DoctorsComponent</title>
<polygon fill="#ffffb3" stroke="black" points="2172.65,-122 2047.35,-122 2047.35,-86 2172.65,-86 2172.65,-122"/>
<text text-anchor="middle" x="2110" y="-99.8" font-family="Times,serif" font-size="14.00">DoctorsComponent</text>
</g>
<!-- DoctorsComponent&#45;&gt;AppModule -->
<g id="edge9" class="edge">
<title>DoctorsComponent&#45;&gt;AppModule</title>
<path fill="none" stroke="black" d="M2059,-122.11C2059,-122.11 2059,-140.99 2059,-140.99"/>
<polygon fill="black" stroke="black" points="2055.5,-140.99 2059,-150.99 2062.5,-140.99 2055.5,-140.99"/>
</g>
<!-- DoctorsCreateComponent -->
<g id="node9" class="node">
<title>DoctorsCreateComponent</title>
<polygon fill="#ffffb3" stroke="black" points="2029.18,-122 1866.82,-122 1866.82,-86 2029.18,-86 2029.18,-122"/>
<text text-anchor="middle" x="1948" y="-99.8" font-family="Times,serif" font-size="14.00">DoctorsCreateComponent</text>
</g>
<!-- DoctorsCreateComponent&#45;&gt;AppModule -->
<g id="edge10" class="edge">
<title>DoctorsCreateComponent&#45;&gt;AppModule</title>
<path fill="none" stroke="black" d="M2008.13,-122.11C2008.13,-122.11 2008.13,-140.99 2008.13,-140.99"/>
<polygon fill="black" stroke="black" points="2004.63,-140.99 2008.13,-150.99 2011.63,-140.99 2004.63,-140.99"/>
</g>
<!-- FooterComponent -->
<g id="node10" class="node">
<title>FooterComponent</title>
<polygon fill="#ffffb3" stroke="black" points="1848.88,-122 1731.12,-122 1731.12,-86 1848.88,-86 1848.88,-122"/>
<text text-anchor="middle" x="1790" y="-99.8" font-family="Times,serif" font-size="14.00">FooterComponent</text>
</g>
<!-- FooterComponent&#45;&gt;AppModule -->
<g id="edge11" class="edge">
<title>FooterComponent&#45;&gt;AppModule</title>
<path fill="none" stroke="black" d="M1790,-122.05C1790,-136.37 1790,-154 1790,-154 1790,-154 1977.1,-154 1977.1,-154"/>
<polygon fill="black" stroke="black" points="1977.1,-157.5 1987.1,-154 1977.1,-150.5 1977.1,-157.5"/>
</g>
<!-- HomeComponent -->
<g id="node11" class="node">
<title>HomeComponent</title>
<polygon fill="#ffffb3" stroke="black" points="1712.55,-122 1597.45,-122 1597.45,-86 1712.55,-86 1712.55,-122"/>
<text text-anchor="middle" x="1655" y="-99.8" font-family="Times,serif" font-size="14.00">HomeComponent</text>
</g>
<!-- HomeComponent&#45;&gt;AppModule -->
<g id="edge12" class="edge">
<title>HomeComponent&#45;&gt;AppModule</title>
<path fill="none" stroke="black" d="M1655,-122.24C1655,-137.57 1655,-157 1655,-157 1655,-157 1977.19,-157 1977.19,-157"/>
<polygon fill="black" stroke="black" points="1977.19,-160.5 1987.19,-157 1977.19,-153.5 1977.19,-160.5"/>
</g>
<!-- ListAppointmentDoctorComponent -->
<g id="node12" class="node">
<title>ListAppointmentDoctorComponent</title>
<polygon fill="#ffffb3" stroke="black" points="1578.87,-122 1363.13,-122 1363.13,-86 1578.87,-86 1578.87,-122"/>
<text text-anchor="middle" x="1471" y="-99.8" font-family="Times,serif" font-size="14.00">ListAppointmentDoctorComponent</text>
</g>
<!-- ListAppointmentDoctorComponent&#45;&gt;AppModule -->
<g id="edge13" class="edge">
<title>ListAppointmentDoctorComponent&#45;&gt;AppModule</title>
<path fill="none" stroke="black" d="M1471,-122.03C1471,-138.4 1471,-160 1471,-160 1471,-160 1977.06,-160 1977.06,-160"/>
<polygon fill="black" stroke="black" points="1977.06,-163.5 1987.06,-160 1977.06,-156.5 1977.06,-163.5"/>
</g>
<!-- ListNewsComponent -->
<g id="node13" class="node">
<title>ListNewsComponent</title>
<polygon fill="#ffffb3" stroke="black" points="1345.48,-122 1210.52,-122 1210.52,-86 1345.48,-86 1345.48,-122"/>
<text text-anchor="middle" x="1278" y="-99.8" font-family="Times,serif" font-size="14.00">ListNewsComponent</text>
</g>
<!-- ListNewsComponent&#45;&gt;AppModule -->
<g id="edge14" class="edge">
<title>ListNewsComponent&#45;&gt;AppModule</title>
<path fill="none" stroke="black" d="M1278,-122.02C1278,-139.37 1278,-163 1278,-163 1278,-163 1977.28,-163 1977.28,-163"/>
<polygon fill="black" stroke="black" points="1977.28,-166.5 1987.28,-163 1977.28,-159.5 1977.28,-166.5"/>
</g>
<!-- ListPatientsComponent -->
<g id="node14" class="node">
<title>ListPatientsComponent</title>
<polygon fill="#ffffb3" stroke="black" points="1192.94,-122 1045.06,-122 1045.06,-86 1192.94,-86 1192.94,-122"/>
<text text-anchor="middle" x="1119" y="-99.8" font-family="Times,serif" font-size="14.00">ListPatientsComponent</text>
</g>
<!-- ListPatientsComponent&#45;&gt;AppModule -->
<g id="edge15" class="edge">
<title>ListPatientsComponent&#45;&gt;AppModule</title>
<path fill="none" stroke="black" d="M1119,-122.3C1119,-140.27 1119,-165 1119,-165 1119,-165 1977.23,-165 1977.23,-165"/>
<polygon fill="black" stroke="black" points="1977.23,-168.5 1987.23,-165 1977.23,-161.5 1977.23,-168.5"/>
</g>
<!-- LoginComponent -->
<g id="node15" class="node">
<title>LoginComponent</title>
<polygon fill="#ffffb3" stroke="black" points="1027.28,-122 912.72,-122 912.72,-86 1027.28,-86 1027.28,-122"/>
<text text-anchor="middle" x="970" y="-99.8" font-family="Times,serif" font-size="14.00">LoginComponent</text>
</g>
<!-- LoginComponent&#45;&gt;AppModule -->
<g id="edge16" class="edge">
<title>LoginComponent&#45;&gt;AppModule</title>
<path fill="none" stroke="black" d="M970,-122.17C970,-141.09 970,-168 970,-168 970,-168 1977.16,-168 1977.16,-168"/>
<polygon fill="black" stroke="black" points="1977.16,-171.5 1987.16,-168 1977.16,-164.5 1977.16,-171.5"/>
</g>
<!-- MedicamentsComponent -->
<g id="node16" class="node">
<title>MedicamentsComponent</title>
<polygon fill="#ffffb3" stroke="black" points="894.25,-122 737.75,-122 737.75,-86 894.25,-86 894.25,-122"/>
<text text-anchor="middle" x="816" y="-99.8" font-family="Times,serif" font-size="14.00">MedicamentsComponent</text>
</g>
<!-- MedicamentsComponent&#45;&gt;AppModule -->
<g id="edge17" class="edge">
<title>MedicamentsComponent&#45;&gt;AppModule</title>
<path fill="none" stroke="black" d="M816,-122.31C816,-142.15 816,-171 816,-171 816,-171 1977.25,-171 1977.25,-171"/>
<polygon fill="black" stroke="black" points="1977.25,-174.5 1987.25,-171 1977.25,-167.5 1977.25,-174.5"/>
</g>
<!-- PatientsCreateComponent -->
<g id="node17" class="node">
<title>PatientsCreateComponent</title>
<polygon fill="#ffffb3" stroke="black" points="720.19,-122 557.81,-122 557.81,-86 720.19,-86 720.19,-122"/>
<text text-anchor="middle" x="639" y="-99.8" font-family="Times,serif" font-size="14.00">PatientsCreateComponent</text>
</g>
<!-- PatientsCreateComponent&#45;&gt;AppModule -->
<g id="edge18" class="edge">
<title>PatientsCreateComponent&#45;&gt;AppModule</title>
<path fill="none" stroke="black" d="M639,-122.03C639,-142.77 639,-174 639,-174 639,-174 1977.02,-174 1977.02,-174"/>
<polygon fill="black" stroke="black" points="1977.02,-177.5 1987.02,-174 1977.02,-170.5 1977.02,-177.5"/>
</g>
<!-- ProfileComponent -->
<g id="node18" class="node">
<title>ProfileComponent</title>
<polygon fill="#ffffb3" stroke="black" points="539.93,-122 420.07,-122 420.07,-86 539.93,-86 539.93,-122"/>
<text text-anchor="middle" x="480" y="-99.8" font-family="Times,serif" font-size="14.00">ProfileComponent</text>
</g>
<!-- ProfileComponent&#45;&gt;AppModule -->
<g id="edge19" class="edge">
<title>ProfileComponent&#45;&gt;AppModule</title>
<path fill="none" stroke="black" d="M499.91,-122.17C499.91,-143.5 499.91,-176 499.91,-176 499.91,-176 1977.31,-176 1977.31,-176"/>
<polygon fill="black" stroke="black" points="1977.31,-179.5 1987.31,-176 1977.31,-172.5 1977.31,-179.5"/>
</g>
<!-- ProfileComponent&#45;&gt;AppModule -->
<g id="edge20" class="edge">
<title>ProfileComponent&#45;&gt;AppModule</title>
<path fill="none" stroke="black" d="M460.09,-122.16C460.09,-144.35 460.09,-179 460.09,-179 460.09,-179 1977.04,-179 1977.04,-179"/>
<polygon fill="black" stroke="black" points="1977.04,-182.5 1987.04,-179 1977.04,-175.5 1977.04,-182.5"/>
</g>
<!-- ProfileDoctorComponent -->
<g id="node19" class="node">
<title>ProfileDoctorComponent</title>
<polygon fill="#ffffb3" stroke="black" points="402.3,-122 243.7,-122 243.7,-86 402.3,-86 402.3,-122"/>
<text text-anchor="middle" x="323" y="-99.8" font-family="Times,serif" font-size="14.00">ProfileDoctorComponent</text>
</g>
<!-- ProfileDoctorComponent&#45;&gt;AppModule -->
<g id="edge21" class="edge">
<title>ProfileDoctorComponent&#45;&gt;AppModule</title>
<path fill="none" stroke="black" d="M323,-122.09C323,-145.13 323,-182 323,-182 323,-182 1977.25,-182 1977.25,-182"/>
<polygon fill="black" stroke="black" points="1977.25,-185.5 1987.25,-182 1977.25,-178.5 1977.25,-185.5"/>
</g>
<!-- ProfilePatientsDoctorComponent -->
<g id="node20" class="node">
<title>ProfilePatientsDoctorComponent</title>
<polygon fill="#ffffb3" stroke="black" points="226.13,-122 23.87,-122 23.87,-86 226.13,-86 226.13,-122"/>
<text text-anchor="middle" x="125" y="-99.8" font-family="Times,serif" font-size="14.00">ProfilePatientsDoctorComponent</text>
</g>
<!-- ProfilePatientsDoctorComponent&#45;&gt;AppModule -->
<g id="edge22" class="edge">
<title>ProfilePatientsDoctorComponent&#45;&gt;AppModule</title>
<path fill="none" stroke="black" d="M125,-122.38C125,-146.28 125,-185 125,-185 125,-185 1977.01,-185 1977.01,-185"/>
<polygon fill="black" stroke="black" points="1977.01,-188.5 1987.01,-185 1977.01,-181.5 1977.01,-188.5"/>
</g>
<!-- AppComponent  -->
<g id="node23" class="node">
<title>AppComponent </title>
<polygon fill="#80b1d3" stroke="black" points="2083.44,-252 1974.56,-252 1974.56,-216 2083.44,-216 2083.44,-252"/>
<text text-anchor="middle" x="2029" y="-229.8" font-family="Times,serif" font-size="14.00">AppComponent </text>
</g>
<!-- AppModule&#45;&gt;AppComponent  -->
<g id="edge24" class="edge">
<title>AppModule&#45;&gt;AppComponent </title>
<path fill="none" stroke="black" stroke-dasharray="1,5" d="M2029,-187.11C2029,-187.11 2029,-205.99 2029,-205.99"/>
<polygon fill="black" stroke="black" points="2025.5,-205.99 2029,-215.99 2032.5,-205.99 2025.5,-205.99"/>
</g>
<!-- AppRoutingModule -->
<g id="node22" class="node">
<title>AppRoutingModule</title>
<polygon fill="#8dd3c7" stroke="black" points="3565.27,-122 3562.27,-126 3541.27,-126 3538.27,-122 3436.73,-122 3436.73,-86 3565.27,-86 3565.27,-122"/>
<text text-anchor="middle" x="3501" y="-99.8" font-family="Times,serif" font-size="14.00">AppRoutingModule</text>
</g>
<!-- AppRoutingModule&#45;&gt;AppModule -->
<g id="edge23" class="edge">
<title>AppRoutingModule&#45;&gt;AppModule</title>
<path fill="none" stroke="black" d="M3501,-122.17C3501,-143.5 3501,-176 3501,-176 3501,-176 2080.68,-176 2080.68,-176"/>
<polygon fill="black" stroke="black" points="2080.68,-172.5 2070.68,-176 2080.68,-179.5 2080.68,-172.5"/>
</g>
<!-- DoctorAPIService -->
<g id="node24" class="node">
<title>DoctorAPIService</title>
<ellipse fill="#fdb462" stroke="black" cx="4026" cy="-104" rx="82.22" ry="18"/>
<text text-anchor="middle" x="4026" y="-99.8" font-family="Times,serif" font-size="14.00">DoctorAPIService</text>
</g>
<!-- DoctorAPIService&#45;&gt;AppModule -->
<g id="edge25" class="edge">
<title>DoctorAPIService&#45;&gt;AppModule</title>
<path fill="none" stroke="black" d="M4026,-122.38C4026,-146.28 4026,-185 4026,-185 4026,-185 2080.71,-185 2080.71,-185"/>
<polygon fill="black" stroke="black" points="2080.71,-181.5 2070.71,-185 2080.71,-188.5 2080.71,-181.5"/>
</g>
<!-- MedicamentService -->
<g id="node25" class="node">
<title>MedicamentService</title>
<ellipse fill="#fdb462" stroke="black" cx="3837" cy="-104" rx="88.02" ry="18"/>
<text text-anchor="middle" x="3837" y="-99.8" font-family="Times,serif" font-size="14.00">MedicamentService</text>
</g>
<!-- MedicamentService&#45;&gt;AppModule -->
<g id="edge26" class="edge">
<title>MedicamentService&#45;&gt;AppModule</title>
<path fill="none" stroke="black" d="M3837,-122.09C3837,-145.13 3837,-182 3837,-182 3837,-182 2081.03,-182 2081.03,-182"/>
<polygon fill="black" stroke="black" points="2081.03,-178.5 2071.03,-182 2081.03,-185.5 2081.03,-178.5"/>
</g>
<!-- PatientsService -->
<g id="node26" class="node">
<title>PatientsService</title>
<ellipse fill="#fdb462" stroke="black" cx="3660" cy="-104" rx="70.64" ry="18"/>
<text text-anchor="middle" x="3660" y="-99.8" font-family="Times,serif" font-size="14.00">PatientsService</text>
</g>
<!-- PatientsService&#45;&gt;AppModule -->
<g id="edge27" class="edge">
<title>PatientsService&#45;&gt;AppModule</title>
<path fill="none" stroke="black" d="M3660,-122.16C3660,-144.35 3660,-179 3660,-179 3660,-179 2080.96,-179 2080.96,-179"/>
<polygon fill="black" stroke="black" points="2080.96,-175.5 2070.96,-179 2080.96,-182.5 2080.96,-175.5"/>
</g>
</g>
</svg>
