<?xml version="1.0" encoding="UTF-8" standalone="no"?>
<!DOCTYPE svg PUBLIC "-//W3C//DTD SVG 1.1//EN"
 "http://www.w3.org/Graphics/SVG/1.1/DTD/svg11.dtd">
<!-- Generated by graphviz version 2.46.0 (20210119.1425)
 -->
<!-- Title: dependencies Pages: 1 -->
<svg width="4601pt" height="284pt"
 viewBox="0.00 0.00 4601.00 284.00" xmlns="http://www.w3.org/2000/svg" xmlns:xlink="http://www.w3.org/1999/xlink">
<g id="graph0" class="graph" transform="scale(1 1) rotate(0) translate(4 280)">
<title>dependencies</title>
<polygon fill="white" stroke="transparent" points="-4,4 -4,-280 4597,-280 4597,4 -4,4"/>
<text text-anchor="start" x="2275.51" y="-42.4" font-family="sans-serif" font-weight="bold" font-size="14.00">Legend</text>
<polygon fill="#ffffb3" stroke="transparent" points="2062.5,-10 2062.5,-30 2082.5,-30 2082.5,-10 2062.5,-10"/>
<text text-anchor="start" x="2086.13" y="-15.4" font-family="sans-serif" font-size="14.00"> &#160;Declarations</text>
<polygon fill="#8dd3c7" stroke="transparent" points="2175.5,-10 2175.5,-30 2195.5,-30 2195.5,-10 2175.5,-10"/>
<text text-anchor="start" x="2199.23" y="-15.4" font-family="sans-serif" font-size="14.00"> &#160;Module</text>
<polygon fill="#80b1d3" stroke="transparent" points="2261.5,-10 2261.5,-30 2281.5,-30 2281.5,-10 2261.5,-10"/>
<text text-anchor="start" x="2285.28" y="-15.4" font-family="sans-serif" font-size="14.00"> &#160;Bootstrap</text>
<polygon fill="#fdb462" stroke="transparent" points="2358.5,-10 2358.5,-30 2378.5,-30 2378.5,-10 2358.5,-10"/>
<text text-anchor="start" x="2382.17" y="-15.4" font-family="sans-serif" font-size="14.00"> &#160;Providers</text>
<polygon fill="#fb8072" stroke="transparent" points="2454.5,-10 2454.5,-30 2474.5,-30 2474.5,-10 2454.5,-10"/>
<text text-anchor="start" x="2478.23" y="-15.4" font-family="sans-serif" font-size="14.00"> &#160;Exports</text>
<g id="clust1" class="cluster">
<title>cluster_AppModule</title>
<polygon fill="none" stroke="black" stroke-dasharray="1,5" points="8,-70 8,-268 4585,-268 4585,-70 8,-70"/>
</g>
<g id="clust28" class="cluster">
<title>cluster_AppModule_providers</title>
<polygon fill="none" stroke="black" points="4042,-78 4042,-130 4577,-130 4577,-78 4042,-78"/>
</g>
<g id="clust25" class="cluster">
<title>cluster_AppModule_imports</title>
<polygon fill="none" stroke="black" points="3890,-78 3890,-130 4034,-130 4034,-78 3890,-78"/>
</g>
<g id="clust27" class="cluster">
<title>cluster_AppModule_bootstrap</title>
<polygon fill="none" stroke="black" points="2268,-208 2268,-260 2392,-260 2392,-208 2268,-208"/>
</g>
<g id="clust2" class="cluster">
<title>cluster_AppModule_declarations</title>
<polygon fill="none" stroke="black" points="16,-78 16,-130 3882,-130 3882,-78 16,-78"/>
</g>
<!-- AboutUsComponent -->
<g id="node1" class="node">
<title>AboutUsComponent</title>
<polygon fill="#ffffb3" stroke="black" points="3873.88,-122 3742.12,-122 3742.12,-86 3873.88,-86 3873.88,-122"/>
<text text-anchor="middle" x="3808" y="-99.8" font-family="Times,serif" font-size="14.00">AboutUsComponent</text>
</g>
<!-- AppModule -->
<g id="node23" class="node">
<title>AppModule</title>
<polygon fill="#8dd3c7" stroke="black" points="2371.66,-187 2368.66,-191 2347.66,-191 2344.66,-187 2288.34,-187 2288.34,-151 2371.66,-151 2371.66,-187"/>
<text text-anchor="middle" x="2330" y="-164.8" font-family="Times,serif" font-size="14.00">AppModule</text>
</g>
<!-- AboutUsComponent&#45;&gt;AppModule -->
<g id="edge1" class="edge">
<title>AboutUsComponent&#45;&gt;AppModule</title>
<path fill="none" stroke="black" d="M3808,-122.28C3808,-143.32 3808,-175 3808,-175 3808,-175 2381.85,-175 2381.85,-175"/>
<polygon fill="black" stroke="black" points="2381.85,-171.5 2371.85,-175 2381.85,-178.5 2381.85,-171.5"/>
</g>
<!-- AdministratorComponent -->
<g id="node2" class="node">
<title>AdministratorComponent</title>
<polygon fill="#ffffb3" stroke="black" points="3723.87,-122 3564.13,-122 3564.13,-86 3723.87,-86 3723.87,-122"/>
<text text-anchor="middle" x="3644" y="-99.8" font-family="Times,serif" font-size="14.00">AdministratorComponent</text>
</g>
<!-- AdministratorComponent&#45;&gt;AppModule -->
<g id="edge2" class="edge">
<title>AdministratorComponent&#45;&gt;AppModule</title>
<path fill="none" stroke="black" d="M3644,-122.22C3644,-142.37 3644,-172 3644,-172 3644,-172 2381.86,-172 2381.86,-172"/>
<polygon fill="black" stroke="black" points="2381.86,-168.5 2371.86,-172 2381.86,-175.5 2381.86,-168.5"/>
</g>
<!-- AppComponent -->
<g id="node3" class="node">
<title>AppComponent</title>
<polygon fill="#ffffb3" stroke="black" points="3545.94,-122 3440.06,-122 3440.06,-86 3545.94,-86 3545.94,-122"/>
<text text-anchor="middle" x="3493" y="-99.8" font-family="Times,serif" font-size="14.00">AppComponent</text>
</g>
<!-- AppComponent&#45;&gt;AppModule -->
<g id="edge3" class="edge">
<title>AppComponent&#45;&gt;AppModule</title>
<path fill="none" stroke="black" d="M3493,-122.11C3493,-141.34 3493,-169 3493,-169 3493,-169 2381.73,-169 2381.73,-169"/>
<polygon fill="black" stroke="black" points="2381.73,-165.5 2371.73,-169 2381.73,-172.5 2381.73,-165.5"/>
</g>
<!-- AppointmentCreateComponent -->
<g id="node4" class="node">
<title>AppointmentCreateComponent</title>
<polygon fill="#ffffb3" stroke="black" points="3421.75,-122 3230.25,-122 3230.25,-86 3421.75,-86 3421.75,-122"/>
<text text-anchor="middle" x="3326" y="-99.8" font-family="Times,serif" font-size="14.00">AppointmentCreateComponent</text>
</g>
<!-- AppointmentCreateComponent&#45;&gt;AppModule -->
<g id="edge4" class="edge">
<title>AppointmentCreateComponent&#45;&gt;AppModule</title>
<path fill="none" stroke="black" d="M3294.04,-122C3294.04,-139.68 3294.04,-164 3294.04,-164 3294.04,-164 2381.73,-164 2381.73,-164"/>
<polygon fill="black" stroke="black" points="2381.73,-160.5 2371.73,-164 2381.73,-167.5 2381.73,-160.5"/>
</g>
<!-- AppointmentCreateComponent&#45;&gt;AppModule -->
<g id="edge5" class="edge">
<title>AppointmentCreateComponent&#45;&gt;AppModule</title>
<path fill="none" stroke="black" d="M3357.96,-122.22C3357.96,-140.83 3357.96,-167 3357.96,-167 3357.96,-167 2381.89,-167 2381.89,-167"/>
<polygon fill="black" stroke="black" points="2381.89,-163.5 2371.89,-167 2381.89,-170.5 2381.89,-163.5"/>
</g>
<!-- AppointmentEditComponent -->
<g id="node5" class="node">
<title>AppointmentEditComponent</title>
<polygon fill="#ffffb3" stroke="black" points="3212.05,-122 3033.95,-122 3033.95,-86 3212.05,-86 3212.05,-122"/>
<text text-anchor="middle" x="3123" y="-99.8" font-family="Times,serif" font-size="14.00">AppointmentEditComponent</text>
</g>
<!-- AppointmentEditComponent&#45;&gt;AppModule -->
<g id="edge6" class="edge">
<title>AppointmentEditComponent&#45;&gt;AppModule</title>
<path fill="none" stroke="black" d="M3123,-122.03C3123,-139.06 3123,-162 3123,-162 3123,-162 2381.8,-162 2381.8,-162"/>
<polygon fill="black" stroke="black" points="2381.8,-158.5 2371.8,-162 2381.8,-165.5 2381.8,-158.5"/>
</g>
<!-- ContactUsComponent -->
<g id="node6" class="node">
<title>ContactUsComponent</title>
<polygon fill="#ffffb3" stroke="black" points="3016.43,-122 2875.57,-122 2875.57,-86 3016.43,-86 3016.43,-122"/>
<text text-anchor="middle" x="2946" y="-99.8" font-family="Times,serif" font-size="14.00">ContactUsComponent</text>
</g>
<!-- ContactUsComponent&#45;&gt;AppModule -->
<g id="edge7" class="edge">
<title>ContactUsComponent&#45;&gt;AppModule</title>
<path fill="none" stroke="black" d="M2946,-122.01C2946,-138.05 2946,-159 2946,-159 2946,-159 2381.86,-159 2381.86,-159"/>
<polygon fill="black" stroke="black" points="2381.86,-155.5 2371.86,-159 2381.86,-162.5 2381.86,-155.5"/>
</g>
<!-- DashbordAppoinmentComponent -->
<g id="node7" class="node">
<title>DashbordAppoinmentComponent</title>
<polygon fill="#ffffb3" stroke="black" points="2857.75,-122 2652.25,-122 2652.25,-86 2857.75,-86 2857.75,-122"/>
<text text-anchor="middle" x="2755" y="-99.8" font-family="Times,serif" font-size="14.00">DashbordAppoinmentComponent</text>
</g>
<!-- DashbordAppoinmentComponent&#45;&gt;AppModule -->
<g id="edge8" class="edge">
<title>DashbordAppoinmentComponent&#45;&gt;AppModule</title>
<path fill="none" stroke="black" d="M2755,-122.24C2755,-137.57 2755,-157 2755,-157 2755,-157 2381.91,-157 2381.91,-157"/>
<polygon fill="black" stroke="black" points="2381.91,-153.5 2371.91,-157 2381.91,-160.5 2381.91,-153.5"/>
</g>
<!-- DoctorsComponent -->
<g id="node8" class="node">
<title>DoctorsComponent</title>
<polygon fill="#ffffb3" stroke="black" points="2633.65,-122 2508.35,-122 2508.35,-86 2633.65,-86 2633.65,-122"/>
<text text-anchor="middle" x="2571" y="-99.8" font-family="Times,serif" font-size="14.00">DoctorsComponent</text>
</g>
<!-- DoctorsComponent&#45;&gt;AppModule -->
<g id="edge9" class="edge">
<title>DoctorsComponent&#45;&gt;AppModule</title>
<path fill="none" stroke="black" d="M2571,-122.05C2571,-136.37 2571,-154 2571,-154 2571,-154 2381.7,-154 2381.7,-154"/>
<polygon fill="black" stroke="black" points="2381.7,-150.5 2371.7,-154 2381.7,-157.5 2381.7,-150.5"/>
</g>
<!-- DoctorsCreateComponent -->
<g id="node9" class="node">
<title>DoctorsCreateComponent</title>
<polygon fill="#ffffb3" stroke="black" points="2490.18,-122 2327.82,-122 2327.82,-86 2490.18,-86 2490.18,-122"/>
<text text-anchor="middle" x="2409" y="-99.8" font-family="Times,serif" font-size="14.00">DoctorsCreateComponent</text>
</g>
<!-- DoctorsCreateComponent&#45;&gt;AppModule -->
<g id="edge10" class="edge">
<title>DoctorsCreateComponent&#45;&gt;AppModule</title>
<path fill="none" stroke="black" d="M2349.87,-122.11C2349.87,-122.11 2349.87,-140.99 2349.87,-140.99"/>
<polygon fill="black" stroke="black" points="2346.37,-140.99 2349.87,-150.99 2353.37,-140.99 2346.37,-140.99"/>
</g>
<!-- FooterComponent -->
<g id="node10" class="node">
<title>FooterComponent</title>
<polygon fill="#ffffb3" stroke="black" points="2309.88,-122 2192.12,-122 2192.12,-86 2309.88,-86 2309.88,-122"/>
<text text-anchor="middle" x="2251" y="-99.8" font-family="Times,serif" font-size="14.00">FooterComponent</text>
</g>
<!-- FooterComponent&#45;&gt;AppModule -->
<g id="edge11" class="edge">
<title>FooterComponent&#45;&gt;AppModule</title>
<path fill="none" stroke="black" d="M2299.06,-122.11C2299.06,-122.11 2299.06,-140.99 2299.06,-140.99"/>
<polygon fill="black" stroke="black" points="2295.56,-140.99 2299.06,-150.99 2302.56,-140.99 2295.56,-140.99"/>
</g>
<!-- HomeComponent -->
<g id="node11" class="node">
<title>HomeComponent</title>
<polygon fill="#ffffb3" stroke="black" points="2173.55,-122 2058.45,-122 2058.45,-86 2173.55,-86 2173.55,-122"/>
<text text-anchor="middle" x="2116" y="-99.8" font-family="Times,serif" font-size="14.00">HomeComponent</text>
</g>
<!-- HomeComponent&#45;&gt;AppModule -->
<g id="edge12" class="edge">
<title>HomeComponent&#45;&gt;AppModule</title>
<path fill="none" stroke="black" d="M2116,-122.05C2116,-136.37 2116,-154 2116,-154 2116,-154 2278.23,-154 2278.23,-154"/>
<polygon fill="black" stroke="black" points="2278.23,-157.5 2288.23,-154 2278.23,-150.5 2278.23,-157.5"/>
</g>
<!-- ListAppoinrmentPatientsComponent -->
<g id="node12" class="node">
<title>ListAppoinrmentPatientsComponent</title>
<polygon fill="#ffffb3" stroke="black" points="2040.09,-122 1817.91,-122 1817.91,-86 2040.09,-86 2040.09,-122"/>
<text text-anchor="middle" x="1929" y="-99.8" font-family="Times,serif" font-size="14.00">ListAppoinrmentPatientsComponent</text>
</g>
<!-- ListAppoinrmentPatientsComponent&#45;&gt;AppModule -->
<g id="edge13" class="edge">
<title>ListAppoinrmentPatientsComponent&#45;&gt;AppModule</title>
<path fill="none" stroke="black" d="M1929,-122.24C1929,-137.57 1929,-157 1929,-157 1929,-157 2278.22,-157 2278.22,-157"/>
<polygon fill="black" stroke="black" points="2278.22,-160.5 2288.22,-157 2278.22,-153.5 2278.22,-160.5"/>
</g>
<!-- ListAppointmentDoctorComponent -->
<g id="node13" class="node">
<title>ListAppointmentDoctorComponent</title>
<polygon fill="#ffffb3" stroke="black" points="1799.87,-122 1584.13,-122 1584.13,-86 1799.87,-86 1799.87,-122"/>
<text text-anchor="middle" x="1692" y="-99.8" font-family="Times,serif" font-size="14.00">ListAppointmentDoctorComponent</text>
</g>
<!-- ListAppointmentDoctorComponent&#45;&gt;AppModule -->
<g id="edge14" class="edge">
<title>ListAppointmentDoctorComponent&#45;&gt;AppModule</title>
<path fill="none" stroke="black" d="M1692,-122.01C1692,-138.05 1692,-159 1692,-159 1692,-159 2278.14,-159 2278.14,-159"/>
<polygon fill="black" stroke="black" points="2278.14,-162.5 2288.14,-159 2278.14,-155.5 2278.14,-162.5"/>
</g>
<!-- ListNewsComponent -->
<g id="node14" class="node">
<title>ListNewsComponent</title>
<polygon fill="#ffffb3" stroke="black" points="1566.48,-122 1431.52,-122 1431.52,-86 1566.48,-86 1566.48,-122"/>
<text text-anchor="middle" x="1499" y="-99.8" font-family="Times,serif" font-size="14.00">ListNewsComponent</text>
</g>
<!-- ListNewsComponent&#45;&gt;AppModule -->
<g id="edge15" class="edge">
<title>ListNewsComponent&#45;&gt;AppModule</title>
<path fill="none" stroke="black" d="M1499,-122.03C1499,-139.06 1499,-162 1499,-162 1499,-162 2278.22,-162 2278.22,-162"/>
<polygon fill="black" stroke="black" points="2278.22,-165.5 2288.22,-162 2278.22,-158.5 2278.22,-165.5"/>
</g>
<!-- ListPatientsComponent -->
<g id="node15" class="node">
<title>ListPatientsComponent</title>
<polygon fill="#ffffb3" stroke="black" points="1413.94,-122 1266.06,-122 1266.06,-86 1413.94,-86 1413.94,-122"/>
<text text-anchor="middle" x="1340" y="-99.8" font-family="Times,serif" font-size="14.00">ListPatientsComponent</text>
</g>
<!-- ListPatientsComponent&#45;&gt;AppModule -->
<g id="edge16" class="edge">
<title>ListPatientsComponent&#45;&gt;AppModule</title>
<path fill="none" stroke="black" d="M1340,-122C1340,-139.68 1340,-164 1340,-164 1340,-164 2278.09,-164 2278.09,-164"/>
<polygon fill="black" stroke="black" points="2278.09,-167.5 2288.09,-164 2278.09,-160.5 2278.09,-167.5"/>
</g>
<!-- LoginComponent -->
<g id="node16" class="node">
<title>LoginComponent</title>
<polygon fill="#ffffb3" stroke="black" points="1248.28,-122 1133.72,-122 1133.72,-86 1248.28,-86 1248.28,-122"/>
<text text-anchor="middle" x="1191" y="-99.8" font-family="Times,serif" font-size="14.00">LoginComponent</text>
</g>
<!-- LoginComponent&#45;&gt;AppModule -->
<g id="edge17" class="edge">
<title>LoginComponent&#45;&gt;AppModule</title>
<path fill="none" stroke="black" d="M1191,-122.22C1191,-140.83 1191,-167 1191,-167 1191,-167 2278.11,-167 2278.11,-167"/>
<polygon fill="black" stroke="black" points="2278.11,-170.5 2288.11,-167 2278.11,-163.5 2278.11,-170.5"/>
</g>
<!-- MedicamentsComponent -->
<g id="node17" class="node">
<title>MedicamentsComponent</title>
<polygon fill="#ffffb3" stroke="black" points="1115.25,-122 958.75,-122 958.75,-86 1115.25,-86 1115.25,-122"/>
<text text-anchor="middle" x="1037" y="-99.8" font-family="Times,serif" font-size="14.00">MedicamentsComponent</text>
</g>
<!-- MedicamentsComponent&#45;&gt;AppModule -->
<g id="edge18" class="edge">
<title>MedicamentsComponent&#45;&gt;AppModule</title>
<path fill="none" stroke="black" d="M1037,-122.11C1037,-141.34 1037,-169 1037,-169 1037,-169 2278.08,-169 2278.08,-169"/>
<polygon fill="black" stroke="black" points="2278.08,-172.5 2288.08,-169 2278.08,-165.5 2278.08,-172.5"/>
</g>
<!-- PatientsCreateComponent -->
<g id="node18" class="node">
<title>PatientsCreateComponent</title>
<polygon fill="#ffffb3" stroke="black" points="941.19,-122 778.81,-122 778.81,-86 941.19,-86 941.19,-122"/>
<text text-anchor="middle" x="860" y="-99.8" font-family="Times,serif" font-size="14.00">PatientsCreateComponent</text>
</g>
<!-- PatientsCreateComponent&#45;&gt;AppModule -->
<g id="edge19" class="edge">
<title>PatientsCreateComponent&#45;&gt;AppModule</title>
<path fill="none" stroke="black" d="M860,-122.22C860,-142.37 860,-172 860,-172 860,-172 2277.98,-172 2277.98,-172"/>
<polygon fill="black" stroke="black" points="2277.98,-175.5 2287.98,-172 2277.98,-168.5 2277.98,-175.5"/>
</g>
<!-- ProfileComponent -->
<g id="node19" class="node">
<title>ProfileComponent</title>
<polygon fill="#ffffb3" stroke="black" points="760.93,-122 641.07,-122 641.07,-86 760.93,-86 760.93,-122"/>
<text text-anchor="middle" x="701" y="-99.8" font-family="Times,serif" font-size="14.00">ProfileComponent</text>
</g>
<!-- ProfileComponent&#45;&gt;AppModule -->
<g id="edge20" class="edge">
<title>ProfileComponent&#45;&gt;AppModule</title>
<path fill="none" stroke="black" d="M720.91,-122.28C720.91,-143.32 720.91,-175 720.91,-175 720.91,-175 2278.2,-175 2278.2,-175"/>
<polygon fill="black" stroke="black" points="2278.2,-178.5 2288.2,-175 2278.2,-171.5 2278.2,-178.5"/>
</g>
<!-- ProfileComponent&#45;&gt;AppModule -->
<g id="edge21" class="edge">
<title>ProfileComponent&#45;&gt;AppModule</title>
<path fill="none" stroke="black" d="M681.09,-122.04C681.09,-143.66 681.09,-177 681.09,-177 681.09,-177 2278,-177 2278,-177"/>
<polygon fill="black" stroke="black" points="2278,-180.5 2288,-177 2278,-173.5 2278,-180.5"/>
</g>
<!-- ProfileDoctorComponent -->
<g id="node20" class="node">
<title>ProfileDoctorComponent</title>
<polygon fill="#ffffb3" stroke="black" points="623.3,-122 464.7,-122 464.7,-86 623.3,-86 623.3,-122"/>
<text text-anchor="middle" x="544" y="-99.8" font-family="Times,serif" font-size="14.00">ProfileDoctorComponent</text>
</g>
<!-- ProfileDoctorComponent&#45;&gt;AppModule -->
<g id="edge22" class="edge">
<title>ProfileDoctorComponent&#45;&gt;AppModule</title>
<path fill="none" stroke="black" d="M544,-122.01C544,-144.49 544,-180 544,-180 544,-180 2278.05,-180 2278.05,-180"/>
<polygon fill="black" stroke="black" points="2278.05,-183.5 2288.05,-180 2278.05,-176.5 2278.05,-183.5"/>
</g>
<!-- ProfileDoctorsPatientComponent -->
<g id="node21" class="node">
<title>ProfileDoctorsPatientComponent</title>
<polygon fill="#ffffb3" stroke="black" points="447.13,-122 244.87,-122 244.87,-86 447.13,-86 447.13,-122"/>
<text text-anchor="middle" x="346" y="-99.8" font-family="Times,serif" font-size="14.00">ProfileDoctorsPatientComponent</text>
</g>
<!-- ProfileDoctorsPatientComponent&#45;&gt;AppModule -->
<g id="edge23" class="edge">
<title>ProfileDoctorsPatientComponent&#45;&gt;AppModule</title>
<path fill="none" stroke="black" d="M346,-122.09C346,-145.13 346,-182 346,-182 346,-182 2278.1,-182 2278.1,-182"/>
<polygon fill="black" stroke="black" points="2278.1,-185.5 2288.1,-182 2278.1,-178.5 2278.1,-185.5"/>
</g>
<!-- ProfilePatientsDoctorComponent -->
<g id="node22" class="node">
<title>ProfilePatientsDoctorComponent</title>
<polygon fill="#ffffb3" stroke="black" points="226.13,-122 23.87,-122 23.87,-86 226.13,-86 226.13,-122"/>
<text text-anchor="middle" x="125" y="-99.8" font-family="Times,serif" font-size="14.00">ProfilePatientsDoctorComponent</text>
</g>
<!-- ProfilePatientsDoctorComponent&#45;&gt;AppModule -->
<g id="edge24" class="edge">
<title>ProfilePatientsDoctorComponent&#45;&gt;AppModule</title>
<path fill="none" stroke="black" d="M125,-122.38C125,-146.28 125,-185 125,-185 125,-185 2277.92,-185 2277.92,-185"/>
<polygon fill="black" stroke="black" points="2277.92,-188.5 2287.92,-185 2277.92,-181.5 2277.92,-188.5"/>
</g>
<!-- AppComponent  -->
<g id="node25" class="node">
<title>AppComponent </title>
<polygon fill="#80b1d3" stroke="black" points="2384.44,-252 2275.56,-252 2275.56,-216 2384.44,-216 2384.44,-252"/>
<text text-anchor="middle" x="2330" y="-229.8" font-family="Times,serif" font-size="14.00">AppComponent </text>
</g>
<!-- AppModule&#45;&gt;AppComponent  -->
<g id="edge26" class="edge">
<title>AppModule&#45;&gt;AppComponent </title>
<path fill="none" stroke="black" stroke-dasharray="1,5" d="M2330,-187.11C2330,-187.11 2330,-205.99 2330,-205.99"/>
<polygon fill="black" stroke="black" points="2326.5,-205.99 2330,-215.99 2333.5,-205.99 2326.5,-205.99"/>
</g>
<!-- AppRoutingModule -->
<g id="node24" class="node">
<title>AppRoutingModule</title>
<polygon fill="#8dd3c7" stroke="black" points="4026.27,-122 4023.27,-126 4002.27,-126 3999.27,-122 3897.73,-122 3897.73,-86 4026.27,-86 4026.27,-122"/>
<text text-anchor="middle" x="3962" y="-99.8" font-family="Times,serif" font-size="14.00">AppRoutingModule</text>
</g>
<!-- AppRoutingModule&#45;&gt;AppModule -->
<g id="edge25" class="edge">
<title>AppRoutingModule&#45;&gt;AppModule</title>
<path fill="none" stroke="black" d="M3962,-122.04C3962,-143.66 3962,-177 3962,-177 3962,-177 2381.98,-177 2381.98,-177"/>
<polygon fill="black" stroke="black" points="2381.98,-173.5 2371.98,-177 2381.98,-180.5 2381.98,-173.5"/>
</g>
<!-- DoctorAPIService -->
<g id="node26" class="node">
<title>DoctorAPIService</title>
<ellipse fill="#fdb462" stroke="black" cx="4487" cy="-104" rx="82.22" ry="18"/>
<text text-anchor="middle" x="4487" y="-99.8" font-family="Times,serif" font-size="14.00">DoctorAPIService</text>
</g>
<!-- DoctorAPIService&#45;&gt;AppModule -->
<g id="edge27" class="edge">
<title>DoctorAPIService&#45;&gt;AppModule</title>
<path fill="none" stroke="black" d="M4487,-122.38C4487,-146.28 4487,-185 4487,-185 4487,-185 2382.12,-185 2382.12,-185"/>
<polygon fill="black" stroke="black" points="2382.12,-181.5 2372.12,-185 2382.12,-188.5 2382.12,-181.5"/>
</g>
<!-- MedicamentService -->
<g id="node27" class="node">
<title>MedicamentService</title>
<ellipse fill="#fdb462" stroke="black" cx="4298" cy="-104" rx="88.02" ry="18"/>
<text text-anchor="middle" x="4298" y="-99.8" font-family="Times,serif" font-size="14.00">MedicamentService</text>
</g>
<!-- MedicamentService&#45;&gt;AppModule -->
<g id="edge28" class="edge">
<title>MedicamentService&#45;&gt;AppModule</title>
<path fill="none" stroke="black" d="M4298,-122.09C4298,-145.13 4298,-182 4298,-182 4298,-182 2382.01,-182 2382.01,-182"/>
<polygon fill="black" stroke="black" points="2382.01,-178.5 2372.01,-182 2382.01,-185.5 2382.01,-178.5"/>
</g>
<!-- PatientsService -->
<g id="node28" class="node">
<title>PatientsService</title>
<ellipse fill="#fdb462" stroke="black" cx="4121" cy="-104" rx="70.64" ry="18"/>
<text text-anchor="middle" x="4121" y="-99.8" font-family="Times,serif" font-size="14.00">PatientsService</text>
</g>
<!-- PatientsService&#45;&gt;AppModule -->
<g id="edge29" class="edge">
<title>PatientsService&#45;&gt;AppModule</title>
<path fill="none" stroke="black" d="M4121,-122.01C4121,-144.49 4121,-180 4121,-180 4121,-180 2382.07,-180 2382.07,-180"/>
<polygon fill="black" stroke="black" points="2382.07,-176.5 2372.07,-180 2382.07,-183.5 2382.07,-176.5"/>
</g>
</g>
</svg>
