<?xml version="1.0" encoding="UTF-8" standalone="no"?>
<!DOCTYPE svg PUBLIC "-//W3C//DTD SVG 1.1//EN"
 "http://www.w3.org/Graphics/SVG/1.1/DTD/svg11.dtd">
<!-- Generated by graphviz version 2.46.0 (20210119.1425)
 -->
<!-- Title: dependencies Pages: 1 -->
<svg width="4350pt" height="284pt"
 viewBox="0.00 0.00 4350.00 284.00" xmlns="http://www.w3.org/2000/svg" xmlns:xlink="http://www.w3.org/1999/xlink">
<g id="graph0" class="graph" transform="scale(1 1) rotate(0) translate(4 280)">
<title>dependencies</title>
<polygon fill="white" stroke="transparent" points="-4,4 -4,-280 4346,-280 4346,4 -4,4"/>
<text text-anchor="start" x="2150.01" y="-42.4" font-family="sans-serif" font-weight="bold" font-size="14.00">Legend</text>
<polygon fill="#ffffb3" stroke="transparent" points="1937,-10 1937,-30 1957,-30 1957,-10 1937,-10"/>
<text text-anchor="start" x="1960.63" y="-15.4" font-family="sans-serif" font-size="14.00"> &#160;Declarations</text>
<polygon fill="#8dd3c7" stroke="transparent" points="2050,-10 2050,-30 2070,-30 2070,-10 2050,-10"/>
<text text-anchor="start" x="2073.73" y="-15.4" font-family="sans-serif" font-size="14.00"> &#160;Module</text>
<polygon fill="#80b1d3" stroke="transparent" points="2136,-10 2136,-30 2156,-30 2156,-10 2136,-10"/>
<text text-anchor="start" x="2159.78" y="-15.4" font-family="sans-serif" font-size="14.00"> &#160;Bootstrap</text>
<polygon fill="#fdb462" stroke="transparent" points="2233,-10 2233,-30 2253,-30 2253,-10 2233,-10"/>
<text text-anchor="start" x="2256.67" y="-15.4" font-family="sans-serif" font-size="14.00"> &#160;Providers</text>
<polygon fill="#fb8072" stroke="transparent" points="2329,-10 2329,-30 2349,-30 2349,-10 2329,-10"/>
<text text-anchor="start" x="2352.73" y="-15.4" font-family="sans-serif" font-size="14.00"> &#160;Exports</text>
<g id="clust1" class="cluster">
<title>cluster_AppModule</title>
<polygon fill="none" stroke="black" stroke-dasharray="1,5" points="8,-70 8,-268 4334,-268 4334,-70 8,-70"/>
</g>
<g id="clust24" class="cluster">
<title>cluster_AppModule_imports</title>
<polygon fill="none" stroke="black" points="4182,-78 4182,-130 4326,-130 4326,-78 4182,-78"/>
</g>
<g id="clust26" class="cluster">
<title>cluster_AppModule_bootstrap</title>
<polygon fill="none" stroke="black" points="2048,-208 2048,-260 2172,-260 2172,-208 2048,-208"/>
</g>
<g id="clust27" class="cluster">
<title>cluster_AppModule_providers</title>
<polygon fill="none" stroke="black" points="3639,-78 3639,-130 4174,-130 4174,-78 3639,-78"/>
</g>
<g id="clust2" class="cluster">
<title>cluster_AppModule_declarations</title>
<polygon fill="none" stroke="black" points="16,-78 16,-130 3631,-130 3631,-78 16,-78"/>
</g>
<!-- AboutUsComponent -->
<g id="node1" class="node">
<title>AboutUsComponent</title>
<polygon fill="#ffffb3" stroke="black" points="3622.88,-122 3491.12,-122 3491.12,-86 3622.88,-86 3622.88,-122"/>
<text text-anchor="middle" x="3557" y="-99.8" font-family="Times,serif" font-size="14.00">AboutUsComponent</text>
</g>
<!-- AppModule -->
<g id="node22" class="node">
<title>AppModule</title>
<polygon fill="#8dd3c7" stroke="black" points="2151.66,-187 2148.66,-191 2127.66,-191 2124.66,-187 2068.34,-187 2068.34,-151 2151.66,-151 2151.66,-187"/>
<text text-anchor="middle" x="2110" y="-164.8" font-family="Times,serif" font-size="14.00">AppModule</text>
</g>
<!-- AboutUsComponent&#45;&gt;AppModule -->
<g id="edge1" class="edge">
<title>AboutUsComponent&#45;&gt;AppModule</title>
<path fill="none" stroke="black" d="M3557,-122.28C3557,-143.32 3557,-175 3557,-175 3557,-175 2161.75,-175 2161.75,-175"/>
<polygon fill="black" stroke="black" points="2161.75,-171.5 2151.75,-175 2161.75,-178.5 2161.75,-171.5"/>
</g>
<!-- AdministratorComponent -->
<g id="node2" class="node">
<title>AdministratorComponent</title>
<polygon fill="#ffffb3" stroke="black" points="3472.87,-122 3313.13,-122 3313.13,-86 3472.87,-86 3472.87,-122"/>
<text text-anchor="middle" x="3393" y="-99.8" font-family="Times,serif" font-size="14.00">AdministratorComponent</text>
</g>
<!-- AdministratorComponent&#45;&gt;AppModule -->
<g id="edge2" class="edge">
<title>AdministratorComponent&#45;&gt;AppModule</title>
<path fill="none" stroke="black" d="M3393,-122.22C3393,-142.37 3393,-172 3393,-172 3393,-172 2161.96,-172 2161.96,-172"/>
<polygon fill="black" stroke="black" points="2161.96,-168.5 2151.96,-172 2161.96,-175.5 2161.96,-168.5"/>
</g>
<!-- AppComponent -->
<g id="node3" class="node">
<title>AppComponent</title>
<polygon fill="#ffffb3" stroke="black" points="3294.94,-122 3189.06,-122 3189.06,-86 3294.94,-86 3294.94,-122"/>
<text text-anchor="middle" x="3242" y="-99.8" font-family="Times,serif" font-size="14.00">AppComponent</text>
</g>
<!-- AppComponent&#45;&gt;AppModule -->
<g id="edge3" class="edge">
<title>AppComponent&#45;&gt;AppModule</title>
<path fill="none" stroke="black" d="M3242,-122.11C3242,-141.34 3242,-169 3242,-169 3242,-169 2161.97,-169 2161.97,-169"/>
<polygon fill="black" stroke="black" points="2161.97,-165.5 2151.97,-169 2161.97,-172.5 2161.97,-165.5"/>
</g>
<!-- AppointmentCreateComponent -->
<g id="node4" class="node">
<title>AppointmentCreateComponent</title>
<polygon fill="#ffffb3" stroke="black" points="3170.75,-122 2979.25,-122 2979.25,-86 3170.75,-86 3170.75,-122"/>
<text text-anchor="middle" x="3075" y="-99.8" font-family="Times,serif" font-size="14.00">AppointmentCreateComponent</text>
</g>
<!-- AppointmentCreateComponent&#45;&gt;AppModule -->
<g id="edge4" class="edge">
<title>AppointmentCreateComponent&#45;&gt;AppModule</title>
<path fill="none" stroke="black" d="M3043.04,-122C3043.04,-139.68 3043.04,-164 3043.04,-164 3043.04,-164 2161.9,-164 2161.9,-164"/>
<polygon fill="black" stroke="black" points="2161.9,-160.5 2151.9,-164 2161.9,-167.5 2161.9,-160.5"/>
</g>
<!-- AppointmentCreateComponent&#45;&gt;AppModule -->
<g id="edge5" class="edge">
<title>AppointmentCreateComponent&#45;&gt;AppModule</title>
<path fill="none" stroke="black" d="M3106.96,-122.22C3106.96,-140.83 3106.96,-167 3106.96,-167 3106.96,-167 2161.88,-167 2161.88,-167"/>
<polygon fill="black" stroke="black" points="2161.88,-163.5 2151.88,-167 2161.88,-170.5 2161.88,-163.5"/>
</g>
<!-- AppointmentDeleteComponent -->
<g id="node5" class="node">
<title>AppointmentDeleteComponent</title>
<polygon fill="#ffffb3" stroke="black" points="2960.75,-122 2769.25,-122 2769.25,-86 2960.75,-86 2960.75,-122"/>
<text text-anchor="middle" x="2865" y="-99.8" font-family="Times,serif" font-size="14.00">AppointmentDeleteComponent</text>
</g>
<!-- AppointmentDeleteComponent&#45;&gt;AppModule -->
<g id="edge6" class="edge">
<title>AppointmentDeleteComponent&#45;&gt;AppModule</title>
<path fill="none" stroke="black" d="M2865,-122.03C2865,-139.06 2865,-162 2865,-162 2865,-162 2161.67,-162 2161.67,-162"/>
<polygon fill="black" stroke="black" points="2161.67,-158.5 2151.67,-162 2161.67,-165.5 2161.67,-158.5"/>
</g>
<!-- AppointmentEditComponent -->
<g id="node6" class="node">
<title>AppointmentEditComponent</title>
<polygon fill="#ffffb3" stroke="black" points="2751.05,-122 2572.95,-122 2572.95,-86 2751.05,-86 2751.05,-122"/>
<text text-anchor="middle" x="2662" y="-99.8" font-family="Times,serif" font-size="14.00">AppointmentEditComponent</text>
</g>
<!-- AppointmentEditComponent&#45;&gt;AppModule -->
<g id="edge7" class="edge">
<title>AppointmentEditComponent&#45;&gt;AppModule</title>
<path fill="none" stroke="black" d="M2662,-122.01C2662,-138.05 2662,-159 2662,-159 2662,-159 2161.94,-159 2161.94,-159"/>
<polygon fill="black" stroke="black" points="2161.94,-155.5 2151.94,-159 2161.94,-162.5 2161.94,-155.5"/>
</g>
<!-- ContactUsComponent -->
<g id="node7" class="node">
<title>ContactUsComponent</title>
<polygon fill="#ffffb3" stroke="black" points="2555.43,-122 2414.57,-122 2414.57,-86 2555.43,-86 2555.43,-122"/>
<text text-anchor="middle" x="2485" y="-99.8" font-family="Times,serif" font-size="14.00">ContactUsComponent</text>
</g>
<!-- ContactUsComponent&#45;&gt;AppModule -->
<g id="edge8" class="edge">
<title>ContactUsComponent&#45;&gt;AppModule</title>
<path fill="none" stroke="black" d="M2485,-122.24C2485,-137.57 2485,-157 2485,-157 2485,-157 2161.93,-157 2161.93,-157"/>
<polygon fill="black" stroke="black" points="2161.93,-153.5 2151.93,-157 2161.93,-160.5 2161.93,-153.5"/>
</g>
<!-- DashbordAppoinmentComponent -->
<g id="node8" class="node">
<title>DashbordAppoinmentComponent</title>
<polygon fill="#ffffb3" stroke="black" points="2396.75,-122 2191.25,-122 2191.25,-86 2396.75,-86 2396.75,-122"/>
<text text-anchor="middle" x="2294" y="-99.8" font-family="Times,serif" font-size="14.00">DashbordAppoinmentComponent</text>
</g>
<!-- DashbordAppoinmentComponent&#45;&gt;AppModule -->
<g id="edge9" class="edge">
<title>DashbordAppoinmentComponent&#45;&gt;AppModule</title>
<path fill="none" stroke="black" d="M2294,-122.05C2294,-136.37 2294,-154 2294,-154 2294,-154 2161.75,-154 2161.75,-154"/>
<polygon fill="black" stroke="black" points="2161.75,-150.5 2151.75,-154 2161.75,-157.5 2161.75,-150.5"/>
</g>
<!-- DoctorsComponent -->
<g id="node9" class="node">
<title>DoctorsComponent</title>
<polygon fill="#ffffb3" stroke="black" points="2172.65,-122 2047.35,-122 2047.35,-86 2172.65,-86 2172.65,-122"/>
<text text-anchor="middle" x="2110" y="-99.8" font-family="Times,serif" font-size="14.00">DoctorsComponent</text>
</g>
<!-- DoctorsComponent&#45;&gt;AppModule -->
<g id="edge10" class="edge">
<title>DoctorsComponent&#45;&gt;AppModule</title>
<path fill="none" stroke="black" d="M2110,-122.11C2110,-122.11 2110,-140.99 2110,-140.99"/>
<polygon fill="black" stroke="black" points="2106.5,-140.99 2110,-150.99 2113.5,-140.99 2106.5,-140.99"/>
</g>
<!-- DoctorsCreateComponent -->
<g id="node10" class="node">
<title>DoctorsCreateComponent</title>
<polygon fill="#ffffb3" stroke="black" points="2029.18,-122 1866.82,-122 1866.82,-86 2029.18,-86 2029.18,-122"/>
<text text-anchor="middle" x="1948" y="-99.8" font-family="Times,serif" font-size="14.00">DoctorsCreateComponent</text>
</g>
<!-- DoctorsCreateComponent&#45;&gt;AppModule -->
<g id="edge11" class="edge">
<title>DoctorsCreateComponent&#45;&gt;AppModule</title>
<path fill="none" stroke="black" d="M1948,-122.05C1948,-136.37 1948,-154 1948,-154 1948,-154 2058.28,-154 2058.28,-154"/>
<polygon fill="black" stroke="black" points="2058.28,-157.5 2068.28,-154 2058.28,-150.5 2058.28,-157.5"/>
</g>
<!-- FooterComponent -->
<g id="node11" class="node">
<title>FooterComponent</title>
<polygon fill="#ffffb3" stroke="black" points="1848.88,-122 1731.12,-122 1731.12,-86 1848.88,-86 1848.88,-122"/>
<text text-anchor="middle" x="1790" y="-99.8" font-family="Times,serif" font-size="14.00">FooterComponent</text>
</g>
<!-- FooterComponent&#45;&gt;AppModule -->
<g id="edge12" class="edge">
<title>FooterComponent&#45;&gt;AppModule</title>
<path fill="none" stroke="black" d="M1790,-122.24C1790,-137.57 1790,-157 1790,-157 1790,-157 2058.17,-157 2058.17,-157"/>
<polygon fill="black" stroke="black" points="2058.17,-160.5 2068.17,-157 2058.17,-153.5 2058.17,-160.5"/>
</g>
<!-- HomeComponent -->
<g id="node12" class="node">
<title>HomeComponent</title>
<polygon fill="#ffffb3" stroke="black" points="1712.55,-122 1597.45,-122 1597.45,-86 1712.55,-86 1712.55,-122"/>
<text text-anchor="middle" x="1655" y="-99.8" font-family="Times,serif" font-size="14.00">HomeComponent</text>
</g>
<!-- HomeComponent&#45;&gt;AppModule -->
<g id="edge13" class="edge">
<title>HomeComponent&#45;&gt;AppModule</title>
<path fill="none" stroke="black" d="M1655,-122.01C1655,-138.05 1655,-159 1655,-159 1655,-159 2058.01,-159 2058.01,-159"/>
<polygon fill="black" stroke="black" points="2058.01,-162.5 2068.01,-159 2058.01,-155.5 2058.01,-162.5"/>
</g>
<!-- ListAppointmentDoctorComponent -->
<g id="node13" class="node">
<title>ListAppointmentDoctorComponent</title>
<polygon fill="#ffffb3" stroke="black" points="1578.87,-122 1363.13,-122 1363.13,-86 1578.87,-86 1578.87,-122"/>
<text text-anchor="middle" x="1471" y="-99.8" font-family="Times,serif" font-size="14.00">ListAppointmentDoctorComponent</text>
</g>
<!-- ListAppointmentDoctorComponent&#45;&gt;AppModule -->
<g id="edge14" class="edge">
<title>ListAppointmentDoctorComponent&#45;&gt;AppModule</title>
<path fill="none" stroke="black" d="M1471,-122.03C1471,-139.06 1471,-162 1471,-162 1471,-162 2058.07,-162 2058.07,-162"/>
<polygon fill="black" stroke="black" points="2058.07,-165.5 2068.07,-162 2058.07,-158.5 2058.07,-165.5"/>
</g>
<!-- ListNewsComponent -->
<g id="node14" class="node">
<title>ListNewsComponent</title>
<polygon fill="#ffffb3" stroke="black" points="1345.48,-122 1210.52,-122 1210.52,-86 1345.48,-86 1345.48,-122"/>
<text text-anchor="middle" x="1278" y="-99.8" font-family="Times,serif" font-size="14.00">ListNewsComponent</text>
</g>
<!-- ListNewsComponent&#45;&gt;AppModule -->
<g id="edge15" class="edge">
<title>ListNewsComponent&#45;&gt;AppModule</title>
<path fill="none" stroke="black" d="M1278,-122C1278,-139.68 1278,-164 1278,-164 1278,-164 2058.17,-164 2058.17,-164"/>
<polygon fill="black" stroke="black" points="2058.17,-167.5 2068.17,-164 2058.17,-160.5 2058.17,-167.5"/>
</g>
<!-- ListPatientsComponent -->
<g id="node15" class="node">
<title>ListPatientsComponent</title>
<polygon fill="#ffffb3" stroke="black" points="1192.94,-122 1045.06,-122 1045.06,-86 1192.94,-86 1192.94,-122"/>
<text text-anchor="middle" x="1119" y="-99.8" font-family="Times,serif" font-size="14.00">ListPatientsComponent</text>
</g>
<!-- ListPatientsComponent&#45;&gt;AppModule -->
<g id="edge16" class="edge">
<title>ListPatientsComponent&#45;&gt;AppModule</title>
<path fill="none" stroke="black" d="M1119,-122.22C1119,-140.83 1119,-167 1119,-167 1119,-167 2058.05,-167 2058.05,-167"/>
<polygon fill="black" stroke="black" points="2058.05,-170.5 2068.05,-167 2058.05,-163.5 2058.05,-170.5"/>
</g>
<!-- LoginComponent -->
<g id="node16" class="node">
<title>LoginComponent</title>
<polygon fill="#ffffb3" stroke="black" points="1027.28,-122 912.72,-122 912.72,-86 1027.28,-86 1027.28,-122"/>
<text text-anchor="middle" x="970" y="-99.8" font-family="Times,serif" font-size="14.00">LoginComponent</text>
</g>
<!-- LoginComponent&#45;&gt;AppModule -->
<g id="edge17" class="edge">
<title>LoginComponent&#45;&gt;AppModule</title>
<path fill="none" stroke="black" d="M970,-122.11C970,-141.34 970,-169 970,-169 970,-169 2058.07,-169 2058.07,-169"/>
<polygon fill="black" stroke="black" points="2058.07,-172.5 2068.07,-169 2058.07,-165.5 2058.07,-172.5"/>
</g>
<!-- MedicamentsComponent -->
<g id="node17" class="node">
<title>MedicamentsComponent</title>
<polygon fill="#ffffb3" stroke="black" points="894.25,-122 737.75,-122 737.75,-86 894.25,-86 894.25,-122"/>
<text text-anchor="middle" x="816" y="-99.8" font-family="Times,serif" font-size="14.00">MedicamentsComponent</text>
</g>
<!-- MedicamentsComponent&#45;&gt;AppModule -->
<g id="edge18" class="edge">
<title>MedicamentsComponent&#45;&gt;AppModule</title>
<path fill="none" stroke="black" d="M816,-122.22C816,-142.37 816,-172 816,-172 816,-172 2058.05,-172 2058.05,-172"/>
<polygon fill="black" stroke="black" points="2058.05,-175.5 2068.05,-172 2058.05,-168.5 2058.05,-175.5"/>
</g>
<!-- PatientsCreateComponent -->
<g id="node18" class="node">
<title>PatientsCreateComponent</title>
<polygon fill="#ffffb3" stroke="black" points="720.19,-122 557.81,-122 557.81,-86 720.19,-86 720.19,-122"/>
<text text-anchor="middle" x="639" y="-99.8" font-family="Times,serif" font-size="14.00">PatientsCreateComponent</text>
</g>
<!-- PatientsCreateComponent&#45;&gt;AppModule -->
<g id="edge19" class="edge">
<title>PatientsCreateComponent&#45;&gt;AppModule</title>
<path fill="none" stroke="black" d="M639,-122.28C639,-143.32 639,-175 639,-175 639,-175 2057.95,-175 2057.95,-175"/>
<polygon fill="black" stroke="black" points="2057.95,-178.5 2067.95,-175 2057.95,-171.5 2057.95,-178.5"/>
</g>
<!-- ProfileComponent -->
<g id="node19" class="node">
<title>ProfileComponent</title>
<polygon fill="#ffffb3" stroke="black" points="539.93,-122 420.07,-122 420.07,-86 539.93,-86 539.93,-122"/>
<text text-anchor="middle" x="480" y="-99.8" font-family="Times,serif" font-size="14.00">ProfileComponent</text>
</g>
<!-- ProfileComponent&#45;&gt;AppModule -->
<g id="edge20" class="edge">
<title>ProfileComponent&#45;&gt;AppModule</title>
<path fill="none" stroke="black" d="M499.91,-122.04C499.91,-143.66 499.91,-177 499.91,-177 499.91,-177 2058.17,-177 2058.17,-177"/>
<polygon fill="black" stroke="black" points="2058.17,-180.5 2068.17,-177 2058.17,-173.5 2058.17,-180.5"/>
</g>
<!-- ProfileComponent&#45;&gt;AppModule -->
<g id="edge21" class="edge">
<title>ProfileComponent&#45;&gt;AppModule</title>
<path fill="none" stroke="black" d="M460.09,-122.01C460.09,-144.49 460.09,-180 460.09,-180 460.09,-180 2057.97,-180 2057.97,-180"/>
<polygon fill="black" stroke="black" points="2057.97,-183.5 2067.97,-180 2057.97,-176.5 2057.97,-183.5"/>
</g>
<!-- ProfileDoctorComponent -->
<g id="node20" class="node">
<title>ProfileDoctorComponent</title>
<polygon fill="#ffffb3" stroke="black" points="402.3,-122 243.7,-122 243.7,-86 402.3,-86 402.3,-122"/>
<text text-anchor="middle" x="323" y="-99.8" font-family="Times,serif" font-size="14.00">ProfileDoctorComponent</text>
</g>
<!-- ProfileDoctorComponent&#45;&gt;AppModule -->
<g id="edge22" class="edge">
<title>ProfileDoctorComponent&#45;&gt;AppModule</title>
<path fill="none" stroke="black" d="M323,-122.09C323,-145.13 323,-182 323,-182 323,-182 2058.02,-182 2058.02,-182"/>
<polygon fill="black" stroke="black" points="2058.02,-185.5 2068.02,-182 2058.02,-178.5 2058.02,-185.5"/>
</g>
<!-- ProfilePatientsDoctorComponent -->
<g id="node21" class="node">
<title>ProfilePatientsDoctorComponent</title>
<polygon fill="#ffffb3" stroke="black" points="226.13,-122 23.87,-122 23.87,-86 226.13,-86 226.13,-122"/>
<text text-anchor="middle" x="125" y="-99.8" font-family="Times,serif" font-size="14.00">ProfilePatientsDoctorComponent</text>
</g>
<!-- ProfilePatientsDoctorComponent&#45;&gt;AppModule -->
<g id="edge23" class="edge">
<title>ProfilePatientsDoctorComponent&#45;&gt;AppModule</title>
<path fill="none" stroke="black" d="M125,-122.38C125,-146.28 125,-185 125,-185 125,-185 2058.08,-185 2058.08,-185"/>
<polygon fill="black" stroke="black" points="2058.08,-188.5 2068.08,-185 2058.08,-181.5 2058.08,-188.5"/>
</g>
<!-- AppComponent  -->
<g id="node24" class="node">
<title>AppComponent </title>
<polygon fill="#80b1d3" stroke="black" points="2164.44,-252 2055.56,-252 2055.56,-216 2164.44,-216 2164.44,-252"/>
<text text-anchor="middle" x="2110" y="-229.8" font-family="Times,serif" font-size="14.00">AppComponent </text>
</g>
<!-- AppModule&#45;&gt;AppComponent  -->
<g id="edge25" class="edge">
<title>AppModule&#45;&gt;AppComponent </title>
<path fill="none" stroke="black" stroke-dasharray="1,5" d="M2110,-187.11C2110,-187.11 2110,-205.99 2110,-205.99"/>
<polygon fill="black" stroke="black" points="2106.5,-205.99 2110,-215.99 2113.5,-205.99 2106.5,-205.99"/>
</g>
<!-- AppRoutingModule -->
<g id="node23" class="node">
<title>AppRoutingModule</title>
<polygon fill="#8dd3c7" stroke="black" points="4318.27,-122 4315.27,-126 4294.27,-126 4291.27,-122 4189.73,-122 4189.73,-86 4318.27,-86 4318.27,-122"/>
<text text-anchor="middle" x="4254" y="-99.8" font-family="Times,serif" font-size="14.00">AppRoutingModule</text>
</g>
<!-- AppRoutingModule&#45;&gt;AppModule -->
<g id="edge24" class="edge">
<title>AppRoutingModule&#45;&gt;AppModule</title>
<path fill="none" stroke="black" d="M4254,-122.38C4254,-146.28 4254,-185 4254,-185 4254,-185 2161.87,-185 2161.87,-185"/>
<polygon fill="black" stroke="black" points="2161.87,-181.5 2151.87,-185 2161.87,-188.5 2161.87,-181.5"/>
</g>
<!-- DoctorAPIService -->
<g id="node25" class="node">
<title>DoctorAPIService</title>
<ellipse fill="#fdb462" stroke="black" cx="4084" cy="-104" rx="82.22" ry="18"/>
<text text-anchor="middle" x="4084" y="-99.8" font-family="Times,serif" font-size="14.00">DoctorAPIService</text>
</g>
<!-- DoctorAPIService&#45;&gt;AppModule -->
<g id="edge26" class="edge">
<title>DoctorAPIService&#45;&gt;AppModule</title>
<path fill="none" stroke="black" d="M4084,-122.09C4084,-145.13 4084,-182 4084,-182 4084,-182 2161.69,-182 2161.69,-182"/>
<polygon fill="black" stroke="black" points="2161.69,-178.5 2151.69,-182 2161.69,-185.5 2161.69,-178.5"/>
</g>
<!-- MedicamentService -->
<g id="node26" class="node">
<title>MedicamentService</title>
<ellipse fill="#fdb462" stroke="black" cx="3895" cy="-104" rx="88.02" ry="18"/>
<text text-anchor="middle" x="3895" y="-99.8" font-family="Times,serif" font-size="14.00">MedicamentService</text>
</g>
<!-- MedicamentService&#45;&gt;AppModule -->
<g id="edge27" class="edge">
<title>MedicamentService&#45;&gt;AppModule</title>
<path fill="none" stroke="black" d="M3895,-122.01C3895,-144.49 3895,-180 3895,-180 3895,-180 2161.93,-180 2161.93,-180"/>
<polygon fill="black" stroke="black" points="2161.93,-176.5 2151.93,-180 2161.93,-183.5 2161.93,-176.5"/>
</g>
<!-- PatientsService -->
<g id="node27" class="node">
<title>PatientsService</title>
<ellipse fill="#fdb462" stroke="black" cx="3718" cy="-104" rx="70.64" ry="18"/>
<text text-anchor="middle" x="3718" y="-99.8" font-family="Times,serif" font-size="14.00">PatientsService</text>
</g>
<!-- PatientsService&#45;&gt;AppModule -->
<g id="edge28" class="edge">
<title>PatientsService&#45;&gt;AppModule</title>
<path fill="none" stroke="black" d="M3718,-122.04C3718,-143.66 3718,-177 3718,-177 3718,-177 2161.77,-177 2161.77,-177"/>
<polygon fill="black" stroke="black" points="2161.77,-173.5 2151.77,-177 2161.77,-180.5 2161.77,-173.5"/>
</g>
</g>
</svg>
