<?xml version="1.0" encoding="UTF-8" standalone="no"?>
<!DOCTYPE svg PUBLIC "-//W3C//DTD SVG 1.1//EN"
 "http://www.w3.org/Graphics/SVG/1.1/DTD/svg11.dtd">
<!-- Generated by graphviz version 2.46.0 (20210119.1425)
 -->
<!-- Title: dependencies Pages: 1 -->
<svg width="4601pt" height="284pt"
 viewBox="0.00 0.00 4601.00 284.00" xmlns="http://www.w3.org/2000/svg" xmlns:xlink="http://www.w3.org/1999/xlink">
<g id="graph0" class="graph" transform="scale(1 1) rotate(0) translate(4 280)">
<title>dependencies</title>
<polygon fill="white" stroke="transparent" points="-4,4 -4,-280 4597,-280 4597,4 -4,4"/>
<text text-anchor="start" x="2275.51" y="-42.4" font-family="sans-serif" font-weight="bold" font-size="14.00">Legend</text>
<polygon fill="#ffffb3" stroke="transparent" points="2062.5,-10 2062.5,-30 2082.5,-30 2082.5,-10 2062.5,-10"/>
<text text-anchor="start" x="2086.13" y="-15.4" font-family="sans-serif" font-size="14.00"> &#160;Declarations</text>
<polygon fill="#8dd3c7" stroke="transparent" points="2175.5,-10 2175.5,-30 2195.5,-30 2195.5,-10 2175.5,-10"/>
<text text-anchor="start" x="2199.23" y="-15.4" font-family="sans-serif" font-size="14.00"> &#160;Module</text>
<polygon fill="#80b1d3" stroke="transparent" points="2261.5,-10 2261.5,-30 2281.5,-30 2281.5,-10 2261.5,-10"/>
<text text-anchor="start" x="2285.28" y="-15.4" font-family="sans-serif" font-size="14.00"> &#160;Bootstrap</text>
<polygon fill="#fdb462" stroke="transparent" points="2358.5,-10 2358.5,-30 2378.5,-30 2378.5,-10 2358.5,-10"/>
<text text-anchor="start" x="2382.17" y="-15.4" font-family="sans-serif" font-size="14.00"> &#160;Providers</text>
<polygon fill="#fb8072" stroke="transparent" points="2454.5,-10 2454.5,-30 2474.5,-30 2474.5,-10 2454.5,-10"/>
<text text-anchor="start" x="2478.23" y="-15.4" font-family="sans-serif" font-size="14.00"> &#160;Exports</text>
<g id="clust1" class="cluster">
<title>cluster_AppModule</title>
<polygon fill="none" stroke="black" stroke-dasharray="1,5" points="8,-70 8,-268 4585,-268 4585,-70 8,-70"/>
</g>
<g id="clust2" class="cluster">
<title>cluster_AppModule_declarations</title>
<polygon fill="none" stroke="black" points="711,-78 711,-130 4577,-130 4577,-78 711,-78"/>
</g>
<g id="clust25" class="cluster">
<title>cluster_AppModule_imports</title>
<polygon fill="none" stroke="black" points="559,-78 559,-130 703,-130 703,-78 559,-78"/>
</g>
<g id="clust27" class="cluster">
<title>cluster_AppModule_bootstrap</title>
<polygon fill="none" stroke="black" points="2228,-208 2228,-260 2352,-260 2352,-208 2228,-208"/>
</g>
<g id="clust28" class="cluster">
<title>cluster_AppModule_providers</title>
<polygon fill="none" stroke="black" points="16,-78 16,-130 551,-130 551,-78 16,-78"/>
</g>
<!-- AboutUsComponent -->
<g id="node1" class="node">
<title>AboutUsComponent</title>
<polygon fill="#ffffb3" stroke="black" points="4568.88,-122 4437.12,-122 4437.12,-86 4568.88,-86 4568.88,-122"/>
<text text-anchor="middle" x="4503" y="-99.8" font-family="Times,serif" font-size="14.00">AboutUsComponent</text>
</g>
<!-- AppModule -->
<g id="node23" class="node">
<title>AppModule</title>
<polygon fill="#8dd3c7" stroke="black" points="2331.66,-187 2328.66,-191 2307.66,-191 2304.66,-187 2248.34,-187 2248.34,-151 2331.66,-151 2331.66,-187"/>
<text text-anchor="middle" x="2290" y="-164.8" font-family="Times,serif" font-size="14.00">AppModule</text>
</g>
<!-- AboutUsComponent&#45;&gt;AppModule -->
<g id="edge1" class="edge">
<title>AboutUsComponent&#45;&gt;AppModule</title>
<path fill="none" stroke="black" d="M4503,-122.38C4503,-146.28 4503,-185 4503,-185 4503,-185 2341.74,-185 2341.74,-185"/>
<polygon fill="black" stroke="black" points="2341.74,-181.5 2331.74,-185 2341.74,-188.5 2341.74,-181.5"/>
</g>
<!-- AdministratorComponent -->
<g id="node2" class="node">
<title>AdministratorComponent</title>
<polygon fill="#ffffb3" stroke="black" points="4418.87,-122 4259.13,-122 4259.13,-86 4418.87,-86 4418.87,-122"/>
<text text-anchor="middle" x="4339" y="-99.8" font-family="Times,serif" font-size="14.00">AdministratorComponent</text>
</g>
<!-- AdministratorComponent&#45;&gt;AppModule -->
<g id="edge2" class="edge">
<title>AdministratorComponent&#45;&gt;AppModule</title>
<path fill="none" stroke="black" d="M4339,-122.09C4339,-145.13 4339,-182 4339,-182 4339,-182 2341.86,-182 2341.86,-182"/>
<polygon fill="black" stroke="black" points="2341.86,-178.5 2331.86,-182 2341.86,-185.5 2341.86,-178.5"/>
</g>
<!-- AppComponent -->
<g id="node3" class="node">
<title>AppComponent</title>
<polygon fill="#ffffb3" stroke="black" points="4240.94,-122 4135.06,-122 4135.06,-86 4240.94,-86 4240.94,-122"/>
<text text-anchor="middle" x="4188" y="-99.8" font-family="Times,serif" font-size="14.00">AppComponent</text>
</g>
<!-- AppComponent&#45;&gt;AppModule -->
<g id="edge3" class="edge">
<title>AppComponent&#45;&gt;AppModule</title>
<path fill="none" stroke="black" d="M4188,-122.01C4188,-144.49 4188,-180 4188,-180 4188,-180 2341.85,-180 2341.85,-180"/>
<polygon fill="black" stroke="black" points="2341.85,-176.5 2331.85,-180 2341.85,-183.5 2341.85,-176.5"/>
</g>
<!-- AppointmentCreateComponent -->
<g id="node4" class="node">
<title>AppointmentCreateComponent</title>
<polygon fill="#ffffb3" stroke="black" points="4116.75,-122 3925.25,-122 3925.25,-86 4116.75,-86 4116.75,-122"/>
<text text-anchor="middle" x="4021" y="-99.8" font-family="Times,serif" font-size="14.00">AppointmentCreateComponent</text>
</g>
<!-- AppointmentCreateComponent&#45;&gt;AppModule -->
<g id="edge4" class="edge">
<title>AppointmentCreateComponent&#45;&gt;AppModule</title>
<path fill="none" stroke="black" d="M3989.04,-122.28C3989.04,-143.32 3989.04,-175 3989.04,-175 3989.04,-175 2342,-175 2342,-175"/>
<polygon fill="black" stroke="black" points="2342,-171.5 2332,-175 2342,-178.5 2342,-171.5"/>
</g>
<!-- AppointmentCreateComponent&#45;&gt;AppModule -->
<g id="edge5" class="edge">
<title>AppointmentCreateComponent&#45;&gt;AppModule</title>
<path fill="none" stroke="black" d="M4052.96,-122.04C4052.96,-143.66 4052.96,-177 4052.96,-177 4052.96,-177 2341.84,-177 2341.84,-177"/>
<polygon fill="black" stroke="black" points="2341.84,-173.5 2331.84,-177 2341.84,-180.5 2341.84,-173.5"/>
</g>
<!-- AppointmentEditComponent -->
<g id="node5" class="node">
<title>AppointmentEditComponent</title>
<polygon fill="#ffffb3" stroke="black" points="3907.05,-122 3728.95,-122 3728.95,-86 3907.05,-86 3907.05,-122"/>
<text text-anchor="middle" x="3818" y="-99.8" font-family="Times,serif" font-size="14.00">AppointmentEditComponent</text>
</g>
<!-- AppointmentEditComponent&#45;&gt;AppModule -->
<g id="edge6" class="edge">
<title>AppointmentEditComponent&#45;&gt;AppModule</title>
<path fill="none" stroke="black" d="M3818,-122.22C3818,-142.37 3818,-172 3818,-172 3818,-172 2341.66,-172 2341.66,-172"/>
<polygon fill="black" stroke="black" points="2341.66,-168.5 2331.66,-172 2341.66,-175.5 2341.66,-168.5"/>
</g>
<!-- ContactUsComponent -->
<g id="node6" class="node">
<title>ContactUsComponent</title>
<polygon fill="#ffffb3" stroke="black" points="3711.43,-122 3570.57,-122 3570.57,-86 3711.43,-86 3711.43,-122"/>
<text text-anchor="middle" x="3641" y="-99.8" font-family="Times,serif" font-size="14.00">ContactUsComponent</text>
</g>
<!-- ContactUsComponent&#45;&gt;AppModule -->
<g id="edge7" class="edge">
<title>ContactUsComponent&#45;&gt;AppModule</title>
<path fill="none" stroke="black" d="M3641,-122.11C3641,-141.34 3641,-169 3641,-169 3641,-169 2341.91,-169 2341.91,-169"/>
<polygon fill="black" stroke="black" points="2341.91,-165.5 2331.91,-169 2341.91,-172.5 2341.91,-165.5"/>
</g>
<!-- DashbordAppoinmentComponent -->
<g id="node7" class="node">
<title>DashbordAppoinmentComponent</title>
<polygon fill="#ffffb3" stroke="black" points="3552.75,-122 3347.25,-122 3347.25,-86 3552.75,-86 3552.75,-122"/>
<text text-anchor="middle" x="3450" y="-99.8" font-family="Times,serif" font-size="14.00">DashbordAppoinmentComponent</text>
</g>
<!-- DashbordAppoinmentComponent&#45;&gt;AppModule -->
<g id="edge8" class="edge">
<title>DashbordAppoinmentComponent&#45;&gt;AppModule</title>
<path fill="none" stroke="black" d="M3450,-122.22C3450,-140.83 3450,-167 3450,-167 3450,-167 2341.97,-167 2341.97,-167"/>
<polygon fill="black" stroke="black" points="2341.97,-163.5 2331.97,-167 2341.97,-170.5 2341.97,-163.5"/>
</g>
<!-- DoctorsComponent -->
<g id="node8" class="node">
<title>DoctorsComponent</title>
<polygon fill="#ffffb3" stroke="black" points="3328.65,-122 3203.35,-122 3203.35,-86 3328.65,-86 3328.65,-122"/>
<text text-anchor="middle" x="3266" y="-99.8" font-family="Times,serif" font-size="14.00">DoctorsComponent</text>
</g>
<!-- DoctorsComponent&#45;&gt;AppModule -->
<g id="edge9" class="edge">
<title>DoctorsComponent&#45;&gt;AppModule</title>
<path fill="none" stroke="black" d="M3266,-122C3266,-139.68 3266,-164 3266,-164 3266,-164 2341.94,-164 2341.94,-164"/>
<polygon fill="black" stroke="black" points="2341.94,-160.5 2331.94,-164 2341.94,-167.5 2341.94,-160.5"/>
</g>
<!-- DoctorsCreateComponent -->
<g id="node9" class="node">
<title>DoctorsCreateComponent</title>
<polygon fill="#ffffb3" stroke="black" points="3185.18,-122 3022.82,-122 3022.82,-86 3185.18,-86 3185.18,-122"/>
<text text-anchor="middle" x="3104" y="-99.8" font-family="Times,serif" font-size="14.00">DoctorsCreateComponent</text>
</g>
<!-- DoctorsCreateComponent&#45;&gt;AppModule -->
<g id="edge10" class="edge">
<title>DoctorsCreateComponent&#45;&gt;AppModule</title>
<path fill="none" stroke="black" d="M3104,-122.03C3104,-139.06 3104,-162 3104,-162 3104,-162 2341.77,-162 2341.77,-162"/>
<polygon fill="black" stroke="black" points="2341.77,-158.5 2331.77,-162 2341.77,-165.5 2341.77,-158.5"/>
</g>
<!-- FooterComponent -->
<g id="node10" class="node">
<title>FooterComponent</title>
<polygon fill="#ffffb3" stroke="black" points="3004.88,-122 2887.12,-122 2887.12,-86 3004.88,-86 3004.88,-122"/>
<text text-anchor="middle" x="2946" y="-99.8" font-family="Times,serif" font-size="14.00">FooterComponent</text>
</g>
<!-- FooterComponent&#45;&gt;AppModule -->
<g id="edge11" class="edge">
<title>FooterComponent&#45;&gt;AppModule</title>
<path fill="none" stroke="black" d="M2946,-122.01C2946,-138.05 2946,-159 2946,-159 2946,-159 2341.78,-159 2341.78,-159"/>
<polygon fill="black" stroke="black" points="2341.78,-155.5 2331.78,-159 2341.78,-162.5 2341.78,-155.5"/>
</g>
<!-- HomeComponent -->
<g id="node11" class="node">
<title>HomeComponent</title>
<polygon fill="#ffffb3" stroke="black" points="2868.55,-122 2753.45,-122 2753.45,-86 2868.55,-86 2868.55,-122"/>
<text text-anchor="middle" x="2811" y="-99.8" font-family="Times,serif" font-size="14.00">HomeComponent</text>
</g>
<!-- HomeComponent&#45;&gt;AppModule -->
<g id="edge12" class="edge">
<title>HomeComponent&#45;&gt;AppModule</title>
<path fill="none" stroke="black" d="M2811,-122.24C2811,-137.57 2811,-157 2811,-157 2811,-157 2341.75,-157 2341.75,-157"/>
<polygon fill="black" stroke="black" points="2341.75,-153.5 2331.75,-157 2341.75,-160.5 2341.75,-153.5"/>
</g>
<!-- ListAppoinrmentPatientsComponent -->
<g id="node12" class="node">
<title>ListAppoinrmentPatientsComponent</title>
<polygon fill="#ffffb3" stroke="black" points="2735.09,-122 2512.91,-122 2512.91,-86 2735.09,-86 2735.09,-122"/>
<text text-anchor="middle" x="2624" y="-99.8" font-family="Times,serif" font-size="14.00">ListAppoinrmentPatientsComponent</text>
</g>
<!-- ListAppoinrmentPatientsComponent&#45;&gt;AppModule -->
<g id="edge13" class="edge">
<title>ListAppoinrmentPatientsComponent&#45;&gt;AppModule</title>
<path fill="none" stroke="black" d="M2624,-122.05C2624,-136.37 2624,-154 2624,-154 2624,-154 2341.96,-154 2341.96,-154"/>
<polygon fill="black" stroke="black" points="2341.96,-150.5 2331.96,-154 2341.96,-157.5 2341.96,-150.5"/>
</g>
<!-- ListAppointmentDoctorComponent -->
<g id="node13" class="node">
<title>ListAppointmentDoctorComponent</title>
<polygon fill="#ffffb3" stroke="black" points="2494.87,-122 2279.13,-122 2279.13,-86 2494.87,-86 2494.87,-122"/>
<text text-anchor="middle" x="2387" y="-99.8" font-family="Times,serif" font-size="14.00">ListAppointmentDoctorComponent</text>
</g>
<!-- ListAppointmentDoctorComponent&#45;&gt;AppModule -->
<g id="edge14" class="edge">
<title>ListAppointmentDoctorComponent&#45;&gt;AppModule</title>
<path fill="none" stroke="black" d="M2305.45,-122.11C2305.45,-122.11 2305.45,-140.99 2305.45,-140.99"/>
<polygon fill="black" stroke="black" points="2301.95,-140.99 2305.45,-150.99 2308.95,-140.99 2301.95,-140.99"/>
</g>
<!-- ListNewsComponent -->
<g id="node14" class="node">
<title>ListNewsComponent</title>
<polygon fill="#ffffb3" stroke="black" points="2261.48,-122 2126.52,-122 2126.52,-86 2261.48,-86 2261.48,-122"/>
<text text-anchor="middle" x="2194" y="-99.8" font-family="Times,serif" font-size="14.00">ListNewsComponent</text>
</g>
<!-- ListNewsComponent&#45;&gt;AppModule -->
<g id="edge15" class="edge">
<title>ListNewsComponent&#45;&gt;AppModule</title>
<path fill="none" stroke="black" d="M2254.83,-122.11C2254.83,-122.11 2254.83,-140.99 2254.83,-140.99"/>
<polygon fill="black" stroke="black" points="2251.33,-140.99 2254.83,-150.99 2258.33,-140.99 2251.33,-140.99"/>
</g>
<!-- ListPatientsComponent -->
<g id="node15" class="node">
<title>ListPatientsComponent</title>
<polygon fill="#ffffb3" stroke="black" points="2108.94,-122 1961.06,-122 1961.06,-86 2108.94,-86 2108.94,-122"/>
<text text-anchor="middle" x="2035" y="-99.8" font-family="Times,serif" font-size="14.00">ListPatientsComponent</text>
</g>
<!-- ListPatientsComponent&#45;&gt;AppModule -->
<g id="edge16" class="edge">
<title>ListPatientsComponent&#45;&gt;AppModule</title>
<path fill="none" stroke="black" d="M2035,-122.05C2035,-136.37 2035,-154 2035,-154 2035,-154 2238.18,-154 2238.18,-154"/>
<polygon fill="black" stroke="black" points="2238.18,-157.5 2248.18,-154 2238.18,-150.5 2238.18,-157.5"/>
</g>
<!-- LoginComponent -->
<g id="node16" class="node">
<title>LoginComponent</title>
<polygon fill="#ffffb3" stroke="black" points="1943.28,-122 1828.72,-122 1828.72,-86 1943.28,-86 1943.28,-122"/>
<text text-anchor="middle" x="1886" y="-99.8" font-family="Times,serif" font-size="14.00">LoginComponent</text>
</g>
<!-- LoginComponent&#45;&gt;AppModule -->
<g id="edge17" class="edge">
<title>LoginComponent&#45;&gt;AppModule</title>
<path fill="none" stroke="black" d="M1886,-122.24C1886,-137.57 1886,-157 1886,-157 1886,-157 2238.29,-157 2238.29,-157"/>
<polygon fill="black" stroke="black" points="2238.29,-160.5 2248.29,-157 2238.29,-153.5 2238.29,-160.5"/>
</g>
<!-- MedicamentsComponent -->
<g id="node17" class="node">
<title>MedicamentsComponent</title>
<polygon fill="#ffffb3" stroke="black" points="1810.25,-122 1653.75,-122 1653.75,-86 1810.25,-86 1810.25,-122"/>
<text text-anchor="middle" x="1732" y="-99.8" font-family="Times,serif" font-size="14.00">MedicamentsComponent</text>
</g>
<!-- MedicamentsComponent&#45;&gt;AppModule -->
<g id="edge18" class="edge">
<title>MedicamentsComponent&#45;&gt;AppModule</title>
<path fill="none" stroke="black" d="M1732,-122.01C1732,-138.05 1732,-159 1732,-159 1732,-159 2238.06,-159 2238.06,-159"/>
<polygon fill="black" stroke="black" points="2238.06,-162.5 2248.06,-159 2238.06,-155.5 2238.06,-162.5"/>
</g>
<!-- PatientsCreateComponent -->
<g id="node18" class="node">
<title>PatientsCreateComponent</title>
<polygon fill="#ffffb3" stroke="black" points="1636.19,-122 1473.81,-122 1473.81,-86 1636.19,-86 1636.19,-122"/>
<text text-anchor="middle" x="1555" y="-99.8" font-family="Times,serif" font-size="14.00">PatientsCreateComponent</text>
</g>
<!-- PatientsCreateComponent&#45;&gt;AppModule -->
<g id="edge19" class="edge">
<title>PatientsCreateComponent&#45;&gt;AppModule</title>
<path fill="none" stroke="black" d="M1555,-122.03C1555,-139.06 1555,-162 1555,-162 1555,-162 2238.11,-162 2238.11,-162"/>
<polygon fill="black" stroke="black" points="2238.11,-165.5 2248.11,-162 2238.11,-158.5 2238.11,-165.5"/>
</g>
<!-- ProfileComponent -->
<g id="node19" class="node">
<title>ProfileComponent</title>
<polygon fill="#ffffb3" stroke="black" points="1455.93,-122 1336.07,-122 1336.07,-86 1455.93,-86 1455.93,-122"/>
<text text-anchor="middle" x="1396" y="-99.8" font-family="Times,serif" font-size="14.00">ProfileComponent</text>
</g>
<!-- ProfileComponent&#45;&gt;AppModule -->
<g id="edge20" class="edge">
<title>ProfileComponent&#45;&gt;AppModule</title>
<path fill="none" stroke="black" d="M1415.91,-122C1415.91,-139.68 1415.91,-164 1415.91,-164 1415.91,-164 2238.14,-164 2238.14,-164"/>
<polygon fill="black" stroke="black" points="2238.14,-167.5 2248.14,-164 2238.14,-160.5 2238.14,-167.5"/>
</g>
<!-- ProfileComponent&#45;&gt;AppModule -->
<g id="edge21" class="edge">
<title>ProfileComponent&#45;&gt;AppModule</title>
<path fill="none" stroke="black" d="M1376.09,-122.22C1376.09,-140.83 1376.09,-167 1376.09,-167 1376.09,-167 2238.06,-167 2238.06,-167"/>
<polygon fill="black" stroke="black" points="2238.06,-170.5 2248.06,-167 2238.06,-163.5 2238.06,-170.5"/>
</g>
<!-- ProfileDoctorComponent -->
<g id="node20" class="node">
<title>ProfileDoctorComponent</title>
<polygon fill="#ffffb3" stroke="black" points="1318.3,-122 1159.7,-122 1159.7,-86 1318.3,-86 1318.3,-122"/>
<text text-anchor="middle" x="1239" y="-99.8" font-family="Times,serif" font-size="14.00">ProfileDoctorComponent</text>
</g>
<!-- ProfileDoctorComponent&#45;&gt;AppModule -->
<g id="edge22" class="edge">
<title>ProfileDoctorComponent&#45;&gt;AppModule</title>
<path fill="none" stroke="black" d="M1239,-122.11C1239,-141.34 1239,-169 1239,-169 1239,-169 2238.15,-169 2238.15,-169"/>
<polygon fill="black" stroke="black" points="2238.15,-172.5 2248.15,-169 2238.15,-165.5 2238.15,-172.5"/>
</g>
<!-- ProfileDoctorsPatientComponent -->
<g id="node21" class="node">
<title>ProfileDoctorsPatientComponent</title>
<polygon fill="#ffffb3" stroke="black" points="1142.13,-122 939.87,-122 939.87,-86 1142.13,-86 1142.13,-122"/>
<text text-anchor="middle" x="1041" y="-99.8" font-family="Times,serif" font-size="14.00">ProfileDoctorsPatientComponent</text>
</g>
<!-- ProfileDoctorsPatientComponent&#45;&gt;AppModule -->
<g id="edge23" class="edge">
<title>ProfileDoctorsPatientComponent&#45;&gt;AppModule</title>
<path fill="none" stroke="black" d="M1041,-122.22C1041,-142.37 1041,-172 1041,-172 1041,-172 2238.09,-172 2238.09,-172"/>
<polygon fill="black" stroke="black" points="2238.09,-175.5 2248.09,-172 2238.09,-168.5 2238.09,-175.5"/>
</g>
<!-- ProfilePatientsDoctorComponent -->
<g id="node22" class="node">
<title>ProfilePatientsDoctorComponent</title>
<polygon fill="#ffffb3" stroke="black" points="921.13,-122 718.87,-122 718.87,-86 921.13,-86 921.13,-122"/>
<text text-anchor="middle" x="820" y="-99.8" font-family="Times,serif" font-size="14.00">ProfilePatientsDoctorComponent</text>
</g>
<!-- ProfilePatientsDoctorComponent&#45;&gt;AppModule -->
<g id="edge24" class="edge">
<title>ProfilePatientsDoctorComponent&#45;&gt;AppModule</title>
<path fill="none" stroke="black" d="M820,-122.28C820,-143.32 820,-175 820,-175 820,-175 2237.98,-175 2237.98,-175"/>
<polygon fill="black" stroke="black" points="2237.98,-178.5 2247.98,-175 2237.98,-171.5 2237.98,-178.5"/>
</g>
<!-- AppComponent  -->
<g id="node25" class="node">
<title>AppComponent </title>
<polygon fill="#80b1d3" stroke="black" points="2344.44,-252 2235.56,-252 2235.56,-216 2344.44,-216 2344.44,-252"/>
<text text-anchor="middle" x="2290" y="-229.8" font-family="Times,serif" font-size="14.00">AppComponent </text>
</g>
<!-- AppModule&#45;&gt;AppComponent  -->
<g id="edge26" class="edge">
<title>AppModule&#45;&gt;AppComponent </title>
<path fill="none" stroke="black" stroke-dasharray="1,5" d="M2290,-187.11C2290,-187.11 2290,-205.99 2290,-205.99"/>
<polygon fill="black" stroke="black" points="2286.5,-205.99 2290,-215.99 2293.5,-205.99 2286.5,-205.99"/>
</g>
<!-- AppRoutingModule -->
<g id="node24" class="node">
<title>AppRoutingModule</title>
<polygon fill="#8dd3c7" stroke="black" points="695.27,-122 692.27,-126 671.27,-126 668.27,-122 566.73,-122 566.73,-86 695.27,-86 695.27,-122"/>
<text text-anchor="middle" x="631" y="-99.8" font-family="Times,serif" font-size="14.00">AppRoutingModule</text>
</g>
<!-- AppRoutingModule&#45;&gt;AppModule -->
<g id="edge25" class="edge">
<title>AppRoutingModule&#45;&gt;AppModule</title>
<path fill="none" stroke="black" d="M631,-122.04C631,-143.66 631,-177 631,-177 631,-177 2238.16,-177 2238.16,-177"/>
<polygon fill="black" stroke="black" points="2238.16,-180.5 2248.16,-177 2238.16,-173.5 2238.16,-180.5"/>
</g>
<!-- DoctorAPIService -->
<g id="node26" class="node">
<title>DoctorAPIService</title>
<ellipse fill="#fdb462" stroke="black" cx="461" cy="-104" rx="82.22" ry="18"/>
<text text-anchor="middle" x="461" y="-99.8" font-family="Times,serif" font-size="14.00">DoctorAPIService</text>
</g>
<!-- DoctorAPIService&#45;&gt;AppModule -->
<g id="edge27" class="edge">
<title>DoctorAPIService&#45;&gt;AppModule</title>
<path fill="none" stroke="black" d="M461,-122.01C461,-144.49 461,-180 461,-180 461,-180 2237.92,-180 2237.92,-180"/>
<polygon fill="black" stroke="black" points="2237.92,-183.5 2247.92,-180 2237.92,-176.5 2237.92,-183.5"/>
</g>
<!-- MedicamentService -->
<g id="node27" class="node">
<title>MedicamentService</title>
<ellipse fill="#fdb462" stroke="black" cx="272" cy="-104" rx="88.02" ry="18"/>
<text text-anchor="middle" x="272" y="-99.8" font-family="Times,serif" font-size="14.00">MedicamentService</text>
</g>
<!-- MedicamentService&#45;&gt;AppModule -->
<g id="edge28" class="edge">
<title>MedicamentService&#45;&gt;AppModule</title>
<path fill="none" stroke="black" d="M272,-122.09C272,-145.13 272,-182 272,-182 272,-182 2238.31,-182 2238.31,-182"/>
<polygon fill="black" stroke="black" points="2238.31,-185.5 2248.31,-182 2238.31,-178.5 2238.31,-185.5"/>
</g>
<!-- PatientsService -->
<g id="node28" class="node">
<title>PatientsService</title>
<ellipse fill="#fdb462" stroke="black" cx="95" cy="-104" rx="70.64" ry="18"/>
<text text-anchor="middle" x="95" y="-99.8" font-family="Times,serif" font-size="14.00">PatientsService</text>
</g>
<!-- PatientsService&#45;&gt;AppModule -->
<g id="edge29" class="edge">
<title>PatientsService&#45;&gt;AppModule</title>
<path fill="none" stroke="black" d="M95,-122.38C95,-146.28 95,-185 95,-185 95,-185 2238.11,-185 2238.11,-185"/>
<polygon fill="black" stroke="black" points="2238.11,-188.5 2248.11,-185 2238.11,-181.5 2238.11,-188.5"/>
</g>
</g>
</svg>
