<?xml version="1.0" encoding="UTF-8" standalone="no"?>
<!DOCTYPE svg PUBLIC "-//W3C//DTD SVG 1.1//EN"
 "http://www.w3.org/Graphics/SVG/1.1/DTD/svg11.dtd">
<!-- Generated by graphviz version 2.46.0 (20210119.1425)
 -->
<!-- Title: dependencies Pages: 1 -->
<svg width="4742pt" height="284pt"
 viewBox="0.00 0.00 4742.00 284.00" xmlns="http://www.w3.org/2000/svg" xmlns:xlink="http://www.w3.org/1999/xlink">
<g id="graph0" class="graph" transform="scale(1 1) rotate(0) translate(4 280)">
<title>dependencies</title>
<polygon fill="white" stroke="transparent" points="-4,4 -4,-280 4738,-280 4738,4 -4,4"/>
<text text-anchor="start" x="2346.01" y="-42.4" font-family="sans-serif" font-weight="bold" font-size="14.00">Legend</text>
<polygon fill="#ffffb3" stroke="transparent" points="2133,-10 2133,-30 2153,-30 2153,-10 2133,-10"/>
<text text-anchor="start" x="2156.63" y="-15.4" font-family="sans-serif" font-size="14.00"> &#160;Declarations</text>
<polygon fill="#8dd3c7" stroke="transparent" points="2246,-10 2246,-30 2266,-30 2266,-10 2246,-10"/>
<text text-anchor="start" x="2269.73" y="-15.4" font-family="sans-serif" font-size="14.00"> &#160;Module</text>
<polygon fill="#80b1d3" stroke="transparent" points="2332,-10 2332,-30 2352,-30 2352,-10 2332,-10"/>
<text text-anchor="start" x="2355.78" y="-15.4" font-family="sans-serif" font-size="14.00"> &#160;Bootstrap</text>
<polygon fill="#fdb462" stroke="transparent" points="2429,-10 2429,-30 2449,-30 2449,-10 2429,-10"/>
<text text-anchor="start" x="2452.67" y="-15.4" font-family="sans-serif" font-size="14.00"> &#160;Providers</text>
<polygon fill="#fb8072" stroke="transparent" points="2525,-10 2525,-30 2545,-30 2545,-10 2525,-10"/>
<text text-anchor="start" x="2548.73" y="-15.4" font-family="sans-serif" font-size="14.00"> &#160;Exports</text>
<g id="clust1" class="cluster">
<title>cluster_AppModule</title>
<polygon fill="none" stroke="black" stroke-dasharray="1,5" points="8,-70 8,-268 4726,-268 4726,-70 8,-70"/>
</g>
<g id="clust2" class="cluster">
<title>cluster_AppModule_declarations</title>
<polygon fill="none" stroke="black" points="711,-78 711,-130 4718,-130 4718,-78 711,-78"/>
</g>
<g id="clust26" class="cluster">
<title>cluster_AppModule_imports</title>
<polygon fill="none" stroke="black" points="559,-78 559,-130 703,-130 703,-78 559,-78"/>
</g>
<g id="clust28" class="cluster">
<title>cluster_AppModule_bootstrap</title>
<polygon fill="none" stroke="black" points="2273,-208 2273,-260 2397,-260 2397,-208 2273,-208"/>
</g>
<g id="clust29" class="cluster">
<title>cluster_AppModule_providers</title>
<polygon fill="none" stroke="black" points="16,-78 16,-130 551,-130 551,-78 16,-78"/>
</g>
<!-- AboutUsComponent -->
<g id="node1" class="node">
<title>AboutUsComponent</title>
<polygon fill="#ffffb3" stroke="black" points="4709.88,-122 4578.12,-122 4578.12,-86 4709.88,-86 4709.88,-122"/>
<text text-anchor="middle" x="4644" y="-99.8" font-family="Times,serif" font-size="14.00">AboutUsComponent</text>
</g>
<!-- AppModule -->
<g id="node24" class="node">
<title>AppModule</title>
<polygon fill="#8dd3c7" stroke="black" points="2376.66,-187 2373.66,-191 2352.66,-191 2349.66,-187 2293.34,-187 2293.34,-151 2376.66,-151 2376.66,-187"/>
<text text-anchor="middle" x="2335" y="-164.8" font-family="Times,serif" font-size="14.00">AppModule</text>
</g>
<!-- AboutUsComponent&#45;&gt;AppModule -->
<g id="edge1" class="edge">
<title>AboutUsComponent&#45;&gt;AppModule</title>
<path fill="none" stroke="black" d="M4644,-122.38C4644,-146.28 4644,-185 4644,-185 4644,-185 2387.05,-185 2387.05,-185"/>
<polygon fill="black" stroke="black" points="2387.05,-181.5 2377.05,-185 2387.05,-188.5 2387.05,-181.5"/>
</g>
<!-- AdministratorComponent -->
<g id="node2" class="node">
<title>AdministratorComponent</title>
<polygon fill="#ffffb3" stroke="black" points="4559.87,-122 4400.13,-122 4400.13,-86 4559.87,-86 4559.87,-122"/>
<text text-anchor="middle" x="4480" y="-99.8" font-family="Times,serif" font-size="14.00">AdministratorComponent</text>
</g>
<!-- AdministratorComponent&#45;&gt;AppModule -->
<g id="edge2" class="edge">
<title>AdministratorComponent&#45;&gt;AppModule</title>
<path fill="none" stroke="black" d="M4480,-122.32C4480,-145.66 4480,-183 4480,-183 4480,-183 2386.89,-183 2386.89,-183"/>
<polygon fill="black" stroke="black" points="2386.89,-179.5 2376.89,-183 2386.89,-186.5 2386.89,-179.5"/>
</g>
<!-- AppComponent -->
<g id="node3" class="node">
<title>AppComponent</title>
<polygon fill="#ffffb3" stroke="black" points="4381.94,-122 4276.06,-122 4276.06,-86 4381.94,-86 4381.94,-122"/>
<text text-anchor="middle" x="4329" y="-99.8" font-family="Times,serif" font-size="14.00">AppComponent</text>
</g>
<!-- AppComponent&#45;&gt;AppModule -->
<g id="edge3" class="edge">
<title>AppComponent&#45;&gt;AppModule</title>
<path fill="none" stroke="black" d="M4329,-122.01C4329,-144.49 4329,-180 4329,-180 4329,-180 2387.11,-180 2387.11,-180"/>
<polygon fill="black" stroke="black" points="2387.11,-176.5 2377.11,-180 2387.11,-183.5 2387.11,-176.5"/>
</g>
<!-- AppointmentCreateComponent -->
<g id="node4" class="node">
<title>AppointmentCreateComponent</title>
<polygon fill="#ffffb3" stroke="black" points="4257.75,-122 4066.25,-122 4066.25,-86 4257.75,-86 4257.75,-122"/>
<text text-anchor="middle" x="4162" y="-99.8" font-family="Times,serif" font-size="14.00">AppointmentCreateComponent</text>
</g>
<!-- AppointmentCreateComponent&#45;&gt;AppModule -->
<g id="edge4" class="edge">
<title>AppointmentCreateComponent&#45;&gt;AppModule</title>
<path fill="none" stroke="black" d="M4130.04,-122.28C4130.04,-143.32 4130.04,-175 4130.04,-175 4130.04,-175 2386.73,-175 2386.73,-175"/>
<polygon fill="black" stroke="black" points="2386.73,-171.5 2376.73,-175 2386.73,-178.5 2386.73,-171.5"/>
</g>
<!-- AppointmentCreateComponent&#45;&gt;AppModule -->
<g id="edge5" class="edge">
<title>AppointmentCreateComponent&#45;&gt;AppModule</title>
<path fill="none" stroke="black" d="M4193.96,-122.29C4193.96,-144.21 4193.96,-178 4193.96,-178 4193.96,-178 2386.88,-178 2386.88,-178"/>
<polygon fill="black" stroke="black" points="2386.88,-174.5 2376.88,-178 2386.88,-181.5 2386.88,-174.5"/>
</g>
<!-- AppointmentEditComponent -->
<g id="node5" class="node">
<title>AppointmentEditComponent</title>
<polygon fill="#ffffb3" stroke="black" points="4048.05,-122 3869.95,-122 3869.95,-86 4048.05,-86 4048.05,-122"/>
<text text-anchor="middle" x="3959" y="-99.8" font-family="Times,serif" font-size="14.00">AppointmentEditComponent</text>
</g>
<!-- AppointmentEditComponent&#45;&gt;AppModule -->
<g id="edge6" class="edge">
<title>AppointmentEditComponent&#45;&gt;AppModule</title>
<path fill="none" stroke="black" d="M3959,-122.13C3959,-142.57 3959,-173 3959,-173 3959,-173 2386.78,-173 2386.78,-173"/>
<polygon fill="black" stroke="black" points="2386.78,-169.5 2376.78,-173 2386.78,-176.5 2386.78,-169.5"/>
</g>
<!-- ContactUsComponent -->
<g id="node6" class="node">
<title>ContactUsComponent</title>
<polygon fill="#ffffb3" stroke="black" points="3852.43,-122 3711.57,-122 3711.57,-86 3852.43,-86 3852.43,-122"/>
<text text-anchor="middle" x="3782" y="-99.8" font-family="Times,serif" font-size="14.00">ContactUsComponent</text>
</g>
<!-- ContactUsComponent&#45;&gt;AppModule -->
<g id="edge7" class="edge">
<title>ContactUsComponent&#45;&gt;AppModule</title>
<path fill="none" stroke="black" d="M3782,-122.31C3782,-142.15 3782,-171 3782,-171 3782,-171 2386.75,-171 2386.75,-171"/>
<polygon fill="black" stroke="black" points="2386.75,-167.5 2376.75,-171 2386.75,-174.5 2386.75,-167.5"/>
</g>
<!-- DashbordAppoinmentComponent -->
<g id="node7" class="node">
<title>DashbordAppoinmentComponent</title>
<polygon fill="#ffffb3" stroke="black" points="3693.75,-122 3488.25,-122 3488.25,-86 3693.75,-86 3693.75,-122"/>
<text text-anchor="middle" x="3591" y="-99.8" font-family="Times,serif" font-size="14.00">DashbordAppoinmentComponent</text>
</g>
<!-- DashbordAppoinmentComponent&#45;&gt;AppModule -->
<g id="edge8" class="edge">
<title>DashbordAppoinmentComponent&#45;&gt;AppModule</title>
<path fill="none" stroke="black" d="M3591,-122.17C3591,-141.09 3591,-168 3591,-168 3591,-168 2386.79,-168 2386.79,-168"/>
<polygon fill="black" stroke="black" points="2386.79,-164.5 2376.79,-168 2386.79,-171.5 2386.79,-164.5"/>
</g>
<!-- DoctorsComponent -->
<g id="node8" class="node">
<title>DoctorsComponent</title>
<polygon fill="#ffffb3" stroke="black" points="3469.65,-122 3344.35,-122 3344.35,-86 3469.65,-86 3469.65,-122"/>
<text text-anchor="middle" x="3407" y="-99.8" font-family="Times,serif" font-size="14.00">DoctorsComponent</text>
</g>
<!-- DoctorsComponent&#45;&gt;AppModule -->
<g id="edge9" class="edge">
<title>DoctorsComponent&#45;&gt;AppModule</title>
<path fill="none" stroke="black" d="M3407,-122.27C3407,-140.56 3407,-166 3407,-166 3407,-166 2386.69,-166 2386.69,-166"/>
<polygon fill="black" stroke="black" points="2386.69,-162.5 2376.69,-166 2386.69,-169.5 2386.69,-162.5"/>
</g>
<!-- DoctorsCreateComponent -->
<g id="node9" class="node">
<title>DoctorsCreateComponent</title>
<polygon fill="#ffffb3" stroke="black" points="3326.18,-122 3163.82,-122 3163.82,-86 3326.18,-86 3326.18,-122"/>
<text text-anchor="middle" x="3245" y="-99.8" font-family="Times,serif" font-size="14.00">DoctorsCreateComponent</text>
</g>
<!-- DoctorsCreateComponent&#45;&gt;AppModule -->
<g id="edge10" class="edge">
<title>DoctorsCreateComponent&#45;&gt;AppModule</title>
<path fill="none" stroke="black" d="M3245,-122.02C3245,-139.37 3245,-163 3245,-163 3245,-163 2386.77,-163 2386.77,-163"/>
<polygon fill="black" stroke="black" points="2386.77,-159.5 2376.77,-163 2386.77,-166.5 2386.77,-159.5"/>
</g>
<!-- FooterComponent -->
<g id="node10" class="node">
<title>FooterComponent</title>
<polygon fill="#ffffb3" stroke="black" points="3145.88,-122 3028.12,-122 3028.12,-86 3145.88,-86 3145.88,-122"/>
<text text-anchor="middle" x="3087" y="-99.8" font-family="Times,serif" font-size="14.00">FooterComponent</text>
</g>
<!-- FooterComponent&#45;&gt;AppModule -->
<g id="edge11" class="edge">
<title>FooterComponent&#45;&gt;AppModule</title>
<path fill="none" stroke="black" d="M3087,-122.04C3087,-138.73 3087,-161 3087,-161 3087,-161 2386.77,-161 2386.77,-161"/>
<polygon fill="black" stroke="black" points="2386.77,-157.5 2376.77,-161 2386.77,-164.5 2386.77,-157.5"/>
</g>
<!-- HomeComponent -->
<g id="node11" class="node">
<title>HomeComponent</title>
<polygon fill="#ffffb3" stroke="black" points="3009.55,-122 2894.45,-122 2894.45,-86 3009.55,-86 3009.55,-122"/>
<text text-anchor="middle" x="2952" y="-99.8" font-family="Times,serif" font-size="14.00">HomeComponent</text>
</g>
<!-- HomeComponent&#45;&gt;AppModule -->
<g id="edge12" class="edge">
<title>HomeComponent&#45;&gt;AppModule</title>
<path fill="none" stroke="black" d="M2952,-122.01C2952,-138.05 2952,-159 2952,-159 2952,-159 2386.92,-159 2386.92,-159"/>
<polygon fill="black" stroke="black" points="2386.92,-155.5 2376.92,-159 2386.92,-162.5 2386.92,-155.5"/>
</g>
<!-- ListAppoinrmentPatientsComponent -->
<g id="node12" class="node">
<title>ListAppoinrmentPatientsComponent</title>
<polygon fill="#ffffb3" stroke="black" points="2876.09,-122 2653.91,-122 2653.91,-86 2876.09,-86 2876.09,-122"/>
<text text-anchor="middle" x="2765" y="-99.8" font-family="Times,serif" font-size="14.00">ListAppoinrmentPatientsComponent</text>
</g>
<!-- ListAppoinrmentPatientsComponent&#45;&gt;AppModule -->
<g id="edge13" class="edge">
<title>ListAppoinrmentPatientsComponent&#45;&gt;AppModule</title>
<path fill="none" stroke="black" d="M2765,-122.19C2765,-137.18 2765,-156 2765,-156 2765,-156 2387.01,-156 2387.01,-156"/>
<polygon fill="black" stroke="black" points="2387.01,-152.5 2377.01,-156 2387.01,-159.5 2387.01,-152.5"/>
</g>
<!-- ListAppointmentDoctorComponent -->
<g id="node13" class="node">
<title>ListAppointmentDoctorComponent</title>
<polygon fill="#ffffb3" stroke="black" points="2635.87,-122 2420.13,-122 2420.13,-86 2635.87,-86 2635.87,-122"/>
<text text-anchor="middle" x="2528" y="-99.8" font-family="Times,serif" font-size="14.00">ListAppointmentDoctorComponent</text>
</g>
<!-- ListAppointmentDoctorComponent&#45;&gt;AppModule -->
<g id="edge14" class="edge">
<title>ListAppointmentDoctorComponent&#45;&gt;AppModule</title>
<path fill="none" stroke="black" d="M2528,-122.05C2528,-136.37 2528,-154 2528,-154 2528,-154 2386.88,-154 2386.88,-154"/>
<polygon fill="black" stroke="black" points="2386.88,-150.5 2376.88,-154 2386.88,-157.5 2386.88,-150.5"/>
</g>
<!-- ListNewsComponent -->
<g id="node14" class="node">
<title>ListNewsComponent</title>
<polygon fill="#ffffb3" stroke="black" points="2402.48,-122 2267.52,-122 2267.52,-86 2402.48,-86 2402.48,-122"/>
<text text-anchor="middle" x="2335" y="-99.8" font-family="Times,serif" font-size="14.00">ListNewsComponent</text>
</g>
<!-- ListNewsComponent&#45;&gt;AppModule -->
<g id="edge15" class="edge">
<title>ListNewsComponent&#45;&gt;AppModule</title>
<path fill="none" stroke="black" d="M2335,-122.11C2335,-122.11 2335,-140.99 2335,-140.99"/>
<polygon fill="black" stroke="black" points="2331.5,-140.99 2335,-150.99 2338.5,-140.99 2331.5,-140.99"/>
</g>
<!-- ListPatientsComponent -->
<g id="node15" class="node">
<title>ListPatientsComponent</title>
<polygon fill="#ffffb3" stroke="black" points="2249.94,-122 2102.06,-122 2102.06,-86 2249.94,-86 2249.94,-122"/>
<text text-anchor="middle" x="2176" y="-99.8" font-family="Times,serif" font-size="14.00">ListPatientsComponent</text>
</g>
<!-- ListPatientsComponent&#45;&gt;AppModule -->
<g id="edge16" class="edge">
<title>ListPatientsComponent&#45;&gt;AppModule</title>
<path fill="none" stroke="black" d="M2176,-122.05C2176,-136.37 2176,-154 2176,-154 2176,-154 2283.22,-154 2283.22,-154"/>
<polygon fill="black" stroke="black" points="2283.22,-157.5 2293.22,-154 2283.22,-150.5 2283.22,-157.5"/>
</g>
<!-- LoginComponent -->
<g id="node16" class="node">
<title>LoginComponent</title>
<polygon fill="#ffffb3" stroke="black" points="2084.28,-122 1969.72,-122 1969.72,-86 2084.28,-86 2084.28,-122"/>
<text text-anchor="middle" x="2027" y="-99.8" font-family="Times,serif" font-size="14.00">LoginComponent</text>
</g>
<!-- LoginComponent&#45;&gt;AppModule -->
<g id="edge17" class="edge">
<title>LoginComponent&#45;&gt;AppModule</title>
<path fill="none" stroke="black" d="M2027,-122.19C2027,-137.18 2027,-156 2027,-156 2027,-156 2283.14,-156 2283.14,-156"/>
<polygon fill="black" stroke="black" points="2283.14,-159.5 2293.14,-156 2283.14,-152.5 2283.14,-159.5"/>
</g>
<!-- MedicamentsComponent -->
<g id="node17" class="node">
<title>MedicamentsComponent</title>
<polygon fill="#ffffb3" stroke="black" points="1951.25,-122 1794.75,-122 1794.75,-86 1951.25,-86 1951.25,-122"/>
<text text-anchor="middle" x="1873" y="-99.8" font-family="Times,serif" font-size="14.00">MedicamentsComponent</text>
</g>
<!-- MedicamentsComponent&#45;&gt;AppModule -->
<g id="edge18" class="edge">
<title>MedicamentsComponent&#45;&gt;AppModule</title>
<path fill="none" stroke="black" d="M1873,-122.01C1873,-138.05 1873,-159 1873,-159 1873,-159 2283.19,-159 2283.19,-159"/>
<polygon fill="black" stroke="black" points="2283.19,-162.5 2293.19,-159 2283.19,-155.5 2283.19,-162.5"/>
</g>
<!-- NavbarComponent -->
<g id="node18" class="node">
<title>NavbarComponent</title>
<polygon fill="#ffffb3" stroke="black" points="1776.03,-122 1653.97,-122 1653.97,-86 1776.03,-86 1776.03,-122"/>
<text text-anchor="middle" x="1715" y="-99.8" font-family="Times,serif" font-size="14.00">NavbarComponent</text>
</g>
<!-- NavbarComponent&#45;&gt;AppModule -->
<g id="edge19" class="edge">
<title>NavbarComponent&#45;&gt;AppModule</title>
<path fill="none" stroke="black" d="M1715,-122.04C1715,-138.73 1715,-161 1715,-161 1715,-161 2282.87,-161 2282.87,-161"/>
<polygon fill="black" stroke="black" points="2282.87,-164.5 2292.87,-161 2282.87,-157.5 2282.87,-164.5"/>
</g>
<!-- PatientsCreateComponent -->
<g id="node19" class="node">
<title>PatientsCreateComponent</title>
<polygon fill="#ffffb3" stroke="black" points="1636.19,-122 1473.81,-122 1473.81,-86 1636.19,-86 1636.19,-122"/>
<text text-anchor="middle" x="1555" y="-99.8" font-family="Times,serif" font-size="14.00">PatientsCreateComponent</text>
</g>
<!-- PatientsCreateComponent&#45;&gt;AppModule -->
<g id="edge20" class="edge">
<title>PatientsCreateComponent&#45;&gt;AppModule</title>
<path fill="none" stroke="black" d="M1555,-122.02C1555,-139.37 1555,-163 1555,-163 1555,-163 2283.34,-163 2283.34,-163"/>
<polygon fill="black" stroke="black" points="2283.34,-166.5 2293.34,-163 2283.34,-159.5 2283.34,-166.5"/>
</g>
<!-- ProfileComponent -->
<g id="node20" class="node">
<title>ProfileComponent</title>
<polygon fill="#ffffb3" stroke="black" points="1455.93,-122 1336.07,-122 1336.07,-86 1455.93,-86 1455.93,-122"/>
<text text-anchor="middle" x="1396" y="-99.8" font-family="Times,serif" font-size="14.00">ProfileComponent</text>
</g>
<!-- ProfileComponent&#45;&gt;AppModule -->
<g id="edge21" class="edge">
<title>ProfileComponent&#45;&gt;AppModule</title>
<path fill="none" stroke="black" d="M1415.91,-122.27C1415.91,-140.56 1415.91,-166 1415.91,-166 1415.91,-166 2283.12,-166 2283.12,-166"/>
<polygon fill="black" stroke="black" points="2283.12,-169.5 2293.12,-166 2283.12,-162.5 2283.12,-169.5"/>
</g>
<!-- ProfileComponent&#45;&gt;AppModule -->
<g id="edge22" class="edge">
<title>ProfileComponent&#45;&gt;AppModule</title>
<path fill="none" stroke="black" d="M1376.09,-122.17C1376.09,-141.09 1376.09,-168 1376.09,-168 1376.09,-168 2283.18,-168 2283.18,-168"/>
<polygon fill="black" stroke="black" points="2283.18,-171.5 2293.18,-168 2283.18,-164.5 2283.18,-171.5"/>
</g>
<!-- ProfileDoctorComponent -->
<g id="node21" class="node">
<title>ProfileDoctorComponent</title>
<polygon fill="#ffffb3" stroke="black" points="1318.3,-122 1159.7,-122 1159.7,-86 1318.3,-86 1318.3,-122"/>
<text text-anchor="middle" x="1239" y="-99.8" font-family="Times,serif" font-size="14.00">ProfileDoctorComponent</text>
</g>
<!-- ProfileDoctorComponent&#45;&gt;AppModule -->
<g id="edge23" class="edge">
<title>ProfileDoctorComponent&#45;&gt;AppModule</title>
<path fill="none" stroke="black" d="M1239,-122.31C1239,-142.15 1239,-171 1239,-171 1239,-171 2283.04,-171 2283.04,-171"/>
<polygon fill="black" stroke="black" points="2283.04,-174.5 2293.04,-171 2283.04,-167.5 2283.04,-174.5"/>
</g>
<!-- ProfileDoctorsPatientComponent -->
<g id="node22" class="node">
<title>ProfileDoctorsPatientComponent</title>
<polygon fill="#ffffb3" stroke="black" points="1142.13,-122 939.87,-122 939.87,-86 1142.13,-86 1142.13,-122"/>
<text text-anchor="middle" x="1041" y="-99.8" font-family="Times,serif" font-size="14.00">ProfileDoctorsPatientComponent</text>
</g>
<!-- ProfileDoctorsPatientComponent&#45;&gt;AppModule -->
<g id="edge24" class="edge">
<title>ProfileDoctorsPatientComponent&#45;&gt;AppModule</title>
<path fill="none" stroke="black" d="M1041,-122.13C1041,-142.57 1041,-173 1041,-173 1041,-173 2283.05,-173 2283.05,-173"/>
<polygon fill="black" stroke="black" points="2283.05,-176.5 2293.05,-173 2283.05,-169.5 2283.05,-176.5"/>
</g>
<!-- ProfilePatientsDoctorComponent -->
<g id="node23" class="node">
<title>ProfilePatientsDoctorComponent</title>
<polygon fill="#ffffb3" stroke="black" points="921.13,-122 718.87,-122 718.87,-86 921.13,-86 921.13,-122"/>
<text text-anchor="middle" x="820" y="-99.8" font-family="Times,serif" font-size="14.00">ProfilePatientsDoctorComponent</text>
</g>
<!-- ProfilePatientsDoctorComponent&#45;&gt;AppModule -->
<g id="edge25" class="edge">
<title>ProfilePatientsDoctorComponent&#45;&gt;AppModule</title>
<path fill="none" stroke="black" d="M820,-122.28C820,-143.32 820,-175 820,-175 820,-175 2283.3,-175 2283.3,-175"/>
<polygon fill="black" stroke="black" points="2283.3,-178.5 2293.3,-175 2283.3,-171.5 2283.3,-178.5"/>
</g>
<!-- AppComponent  -->
<g id="node26" class="node">
<title>AppComponent </title>
<polygon fill="#80b1d3" stroke="black" points="2389.44,-252 2280.56,-252 2280.56,-216 2389.44,-216 2389.44,-252"/>
<text text-anchor="middle" x="2335" y="-229.8" font-family="Times,serif" font-size="14.00">AppComponent </text>
</g>
<!-- AppModule&#45;&gt;AppComponent  -->
<g id="edge27" class="edge">
<title>AppModule&#45;&gt;AppComponent </title>
<path fill="none" stroke="black" stroke-dasharray="1,5" d="M2335,-187.11C2335,-187.11 2335,-205.99 2335,-205.99"/>
<polygon fill="black" stroke="black" points="2331.5,-205.99 2335,-215.99 2338.5,-205.99 2331.5,-205.99"/>
</g>
<!-- AppRoutingModule -->
<g id="node25" class="node">
<title>AppRoutingModule</title>
<polygon fill="#8dd3c7" stroke="black" points="695.27,-122 692.27,-126 671.27,-126 668.27,-122 566.73,-122 566.73,-86 695.27,-86 695.27,-122"/>
<text text-anchor="middle" x="631" y="-99.8" font-family="Times,serif" font-size="14.00">AppRoutingModule</text>
</g>
<!-- AppRoutingModule&#45;&gt;AppModule -->
<g id="edge26" class="edge">
<title>AppRoutingModule&#45;&gt;AppModule</title>
<path fill="none" stroke="black" d="M631,-122.29C631,-144.21 631,-178 631,-178 631,-178 2283.3,-178 2283.3,-178"/>
<polygon fill="black" stroke="black" points="2283.3,-181.5 2293.3,-178 2283.3,-174.5 2283.3,-181.5"/>
</g>
<!-- DoctorAPIService -->
<g id="node27" class="node">
<title>DoctorAPIService</title>
<ellipse fill="#fdb462" stroke="black" cx="461" cy="-104" rx="82.22" ry="18"/>
<text text-anchor="middle" x="461" y="-99.8" font-family="Times,serif" font-size="14.00">DoctorAPIService</text>
</g>
<!-- DoctorAPIService&#45;&gt;AppModule -->
<g id="edge28" class="edge">
<title>DoctorAPIService&#45;&gt;AppModule</title>
<path fill="none" stroke="black" d="M461,-122.01C461,-144.49 461,-180 461,-180 461,-180 2283.23,-180 2283.23,-180"/>
<polygon fill="black" stroke="black" points="2283.23,-183.5 2293.23,-180 2283.23,-176.5 2283.23,-183.5"/>
</g>
<!-- MedicamentService -->
<g id="node28" class="node">
<title>MedicamentService</title>
<ellipse fill="#fdb462" stroke="black" cx="272" cy="-104" rx="88.02" ry="18"/>
<text text-anchor="middle" x="272" y="-99.8" font-family="Times,serif" font-size="14.00">MedicamentService</text>
</g>
<!-- MedicamentService&#45;&gt;AppModule -->
<g id="edge29" class="edge">
<title>MedicamentService&#45;&gt;AppModule</title>
<path fill="none" stroke="black" d="M272,-122.32C272,-145.66 272,-183 272,-183 272,-183 2283.32,-183 2283.32,-183"/>
<polygon fill="black" stroke="black" points="2283.32,-186.5 2293.32,-183 2283.32,-179.5 2283.32,-186.5"/>
</g>
<!-- PatientsService -->
<g id="node29" class="node">
<title>PatientsService</title>
<ellipse fill="#fdb462" stroke="black" cx="95" cy="-104" rx="70.64" ry="18"/>
<text text-anchor="middle" x="95" y="-99.8" font-family="Times,serif" font-size="14.00">PatientsService</text>
</g>
<!-- PatientsService&#45;&gt;AppModule -->
<g id="edge30" class="edge">
<title>PatientsService&#45;&gt;AppModule</title>
<path fill="none" stroke="black" d="M95,-122.38C95,-146.28 95,-185 95,-185 95,-185 2283.24,-185 2283.24,-185"/>
<polygon fill="black" stroke="black" points="2283.24,-188.5 2293.24,-185 2283.24,-181.5 2283.24,-188.5"/>
</g>
</g>
</svg>
