<?xml version="1.0" encoding="UTF-8" standalone="no"?>
<!DOCTYPE svg PUBLIC "-//W3C//DTD SVG 1.1//EN"
 "http://www.w3.org/Graphics/SVG/1.1/DTD/svg11.dtd">
<!-- Generated by graphviz version 2.46.0 (20210119.1425)
 -->
<!-- Title: dependencies Pages: 1 -->
<svg width="4140pt" height="284pt"
 viewBox="0.00 0.00 4140.00 284.00" xmlns="http://www.w3.org/2000/svg" xmlns:xlink="http://www.w3.org/1999/xlink">
<g id="graph0" class="graph" transform="scale(1 1) rotate(0) translate(4 280)">
<title>dependencies</title>
<polygon fill="white" stroke="transparent" points="-4,4 -4,-280 4136,-280 4136,4 -4,4"/>
<text text-anchor="start" x="2045.01" y="-42.4" font-family="sans-serif" font-weight="bold" font-size="14.00">Legend</text>
<polygon fill="#ffffb3" stroke="transparent" points="1832,-10 1832,-30 1852,-30 1852,-10 1832,-10"/>
<text text-anchor="start" x="1855.63" y="-15.4" font-family="sans-serif" font-size="14.00"> &#160;Declarations</text>
<polygon fill="#8dd3c7" stroke="transparent" points="1945,-10 1945,-30 1965,-30 1965,-10 1945,-10"/>
<text text-anchor="start" x="1968.73" y="-15.4" font-family="sans-serif" font-size="14.00"> &#160;Module</text>
<polygon fill="#80b1d3" stroke="transparent" points="2031,-10 2031,-30 2051,-30 2051,-10 2031,-10"/>
<text text-anchor="start" x="2054.78" y="-15.4" font-family="sans-serif" font-size="14.00"> &#160;Bootstrap</text>
<polygon fill="#fdb462" stroke="transparent" points="2128,-10 2128,-30 2148,-30 2148,-10 2128,-10"/>
<text text-anchor="start" x="2151.67" y="-15.4" font-family="sans-serif" font-size="14.00"> &#160;Providers</text>
<polygon fill="#fb8072" stroke="transparent" points="2224,-10 2224,-30 2244,-30 2244,-10 2224,-10"/>
<text text-anchor="start" x="2247.73" y="-15.4" font-family="sans-serif" font-size="14.00"> &#160;Exports</text>
<g id="clust1" class="cluster">
<title>cluster_AppModule</title>
<polygon fill="none" stroke="black" stroke-dasharray="1,5" points="8,-70 8,-268 4124,-268 4124,-70 8,-70"/>
</g>
<g id="clust2" class="cluster">
<title>cluster_AppModule_declarations</title>
<polygon fill="none" stroke="black" points="711,-78 711,-130 4116,-130 4116,-78 711,-78"/>
</g>
<g id="clust23" class="cluster">
<title>cluster_AppModule_imports</title>
<polygon fill="none" stroke="black" points="559,-78 559,-130 703,-130 703,-78 559,-78"/>
</g>
<g id="clust25" class="cluster">
<title>cluster_AppModule_bootstrap</title>
<polygon fill="none" stroke="black" points="2007,-208 2007,-260 2131,-260 2131,-208 2007,-208"/>
</g>
<g id="clust26" class="cluster">
<title>cluster_AppModule_providers</title>
<polygon fill="none" stroke="black" points="16,-78 16,-130 551,-130 551,-78 16,-78"/>
</g>
<!-- AboutUsComponent -->
<g id="node1" class="node">
<title>AboutUsComponent</title>
<polygon fill="#ffffb3" stroke="black" points="4107.88,-122 3976.12,-122 3976.12,-86 4107.88,-86 4107.88,-122"/>
<text text-anchor="middle" x="4042" y="-99.8" font-family="Times,serif" font-size="14.00">AboutUsComponent</text>
</g>
<!-- AppModule -->
<g id="node21" class="node">
<title>AppModule</title>
<polygon fill="#8dd3c7" stroke="black" points="2110.66,-187 2107.66,-191 2086.66,-191 2083.66,-187 2027.34,-187 2027.34,-151 2110.66,-151 2110.66,-187"/>
<text text-anchor="middle" x="2069" y="-164.8" font-family="Times,serif" font-size="14.00">AppModule</text>
</g>
<!-- AboutUsComponent&#45;&gt;AppModule -->
<g id="edge1" class="edge">
<title>AboutUsComponent&#45;&gt;AppModule</title>
<path fill="none" stroke="black" d="M4042,-122.38C4042,-146.28 4042,-185 4042,-185 4042,-185 2120.66,-185 2120.66,-185"/>
<polygon fill="black" stroke="black" points="2120.66,-181.5 2110.66,-185 2120.66,-188.5 2120.66,-181.5"/>
</g>
<!-- AdministratorComponent -->
<g id="node2" class="node">
<title>AdministratorComponent</title>
<polygon fill="#ffffb3" stroke="black" points="3957.87,-122 3798.13,-122 3798.13,-86 3957.87,-86 3957.87,-122"/>
<text text-anchor="middle" x="3878" y="-99.8" font-family="Times,serif" font-size="14.00">AdministratorComponent</text>
</g>
<!-- AdministratorComponent&#45;&gt;AppModule -->
<g id="edge2" class="edge">
<title>AdministratorComponent&#45;&gt;AppModule</title>
<path fill="none" stroke="black" d="M3878,-122.09C3878,-145.13 3878,-182 3878,-182 3878,-182 2121.05,-182 2121.05,-182"/>
<polygon fill="black" stroke="black" points="2121.05,-178.5 2111.05,-182 2121.05,-185.5 2121.05,-178.5"/>
</g>
<!-- AppComponent -->
<g id="node3" class="node">
<title>AppComponent</title>
<polygon fill="#ffffb3" stroke="black" points="3779.94,-122 3674.06,-122 3674.06,-86 3779.94,-86 3779.94,-122"/>
<text text-anchor="middle" x="3727" y="-99.8" font-family="Times,serif" font-size="14.00">AppComponent</text>
</g>
<!-- AppComponent&#45;&gt;AppModule -->
<g id="edge3" class="edge">
<title>AppComponent&#45;&gt;AppModule</title>
<path fill="none" stroke="black" d="M3727,-122.16C3727,-144.35 3727,-179 3727,-179 3727,-179 2120.81,-179 2120.81,-179"/>
<polygon fill="black" stroke="black" points="2120.81,-175.5 2110.81,-179 2120.81,-182.5 2120.81,-175.5"/>
</g>
<!-- AppointmentCreateComponent -->
<g id="node4" class="node">
<title>AppointmentCreateComponent</title>
<polygon fill="#ffffb3" stroke="black" points="3655.75,-122 3464.25,-122 3464.25,-86 3655.75,-86 3655.75,-122"/>
<text text-anchor="middle" x="3560" y="-99.8" font-family="Times,serif" font-size="14.00">AppointmentCreateComponent</text>
</g>
<!-- AppointmentCreateComponent&#45;&gt;AppModule -->
<g id="edge4" class="edge">
<title>AppointmentCreateComponent&#45;&gt;AppModule</title>
<path fill="none" stroke="black" d="M3528.04,-122.03C3528.04,-142.77 3528.04,-174 3528.04,-174 3528.04,-174 2120.7,-174 2120.7,-174"/>
<polygon fill="black" stroke="black" points="2120.7,-170.5 2110.7,-174 2120.7,-177.5 2120.7,-170.5"/>
</g>
<!-- AppointmentCreateComponent&#45;&gt;AppModule -->
<g id="edge5" class="edge">
<title>AppointmentCreateComponent&#45;&gt;AppModule</title>
<path fill="none" stroke="black" d="M3591.96,-122.17C3591.96,-143.5 3591.96,-176 3591.96,-176 3591.96,-176 2120.92,-176 2120.92,-176"/>
<polygon fill="black" stroke="black" points="2120.92,-172.5 2110.92,-176 2120.92,-179.5 2120.92,-172.5"/>
</g>
<!-- AppointmentEditComponent -->
<g id="node5" class="node">
<title>AppointmentEditComponent</title>
<polygon fill="#ffffb3" stroke="black" points="3446.05,-122 3267.95,-122 3267.95,-86 3446.05,-86 3446.05,-122"/>
<text text-anchor="middle" x="3357" y="-99.8" font-family="Times,serif" font-size="14.00">AppointmentEditComponent</text>
</g>
<!-- AppointmentEditComponent&#45;&gt;AppModule -->
<g id="edge6" class="edge">
<title>AppointmentEditComponent&#45;&gt;AppModule</title>
<path fill="none" stroke="black" d="M3357,-122.31C3357,-142.15 3357,-171 3357,-171 3357,-171 2120.76,-171 2120.76,-171"/>
<polygon fill="black" stroke="black" points="2120.76,-167.5 2110.76,-171 2120.76,-174.5 2120.76,-167.5"/>
</g>
<!-- ContactUsComponent -->
<g id="node6" class="node">
<title>ContactUsComponent</title>
<polygon fill="#ffffb3" stroke="black" points="3250.43,-122 3109.57,-122 3109.57,-86 3250.43,-86 3250.43,-122"/>
<text text-anchor="middle" x="3180" y="-99.8" font-family="Times,serif" font-size="14.00">ContactUsComponent</text>
</g>
<!-- ContactUsComponent&#45;&gt;AppModule -->
<g id="edge7" class="edge">
<title>ContactUsComponent&#45;&gt;AppModule</title>
<path fill="none" stroke="black" d="M3180,-122.17C3180,-141.09 3180,-168 3180,-168 3180,-168 2120.86,-168 2120.86,-168"/>
<polygon fill="black" stroke="black" points="2120.86,-164.5 2110.86,-168 2120.86,-171.5 2120.86,-164.5"/>
</g>
<!-- DashbordAppoinmentComponent -->
<g id="node7" class="node">
<title>DashbordAppoinmentComponent</title>
<polygon fill="#ffffb3" stroke="black" points="3091.75,-122 2886.25,-122 2886.25,-86 3091.75,-86 3091.75,-122"/>
<text text-anchor="middle" x="2989" y="-99.8" font-family="Times,serif" font-size="14.00">DashbordAppoinmentComponent</text>
</g>
<!-- DashbordAppoinmentComponent&#45;&gt;AppModule -->
<g id="edge8" class="edge">
<title>DashbordAppoinmentComponent&#45;&gt;AppModule</title>
<path fill="none" stroke="black" d="M2989,-122.3C2989,-140.27 2989,-165 2989,-165 2989,-165 2120.92,-165 2120.92,-165"/>
<polygon fill="black" stroke="black" points="2120.92,-161.5 2110.92,-165 2120.92,-168.5 2120.92,-161.5"/>
</g>
<!-- DoctorsComponent -->
<g id="node8" class="node">
<title>DoctorsComponent</title>
<polygon fill="#ffffb3" stroke="black" points="2867.65,-122 2742.35,-122 2742.35,-86 2867.65,-86 2867.65,-122"/>
<text text-anchor="middle" x="2805" y="-99.8" font-family="Times,serif" font-size="14.00">DoctorsComponent</text>
</g>
<!-- DoctorsComponent&#45;&gt;AppModule -->
<g id="edge9" class="edge">
<title>DoctorsComponent&#45;&gt;AppModule</title>
<path fill="none" stroke="black" d="M2805,-122.02C2805,-139.37 2805,-163 2805,-163 2805,-163 2120.68,-163 2120.68,-163"/>
<polygon fill="black" stroke="black" points="2120.68,-159.5 2110.68,-163 2120.68,-166.5 2120.68,-159.5"/>
</g>
<!-- DoctorsCreateComponent -->
<g id="node9" class="node">
<title>DoctorsCreateComponent</title>
<polygon fill="#ffffb3" stroke="black" points="2724.18,-122 2561.82,-122 2561.82,-86 2724.18,-86 2724.18,-122"/>
<text text-anchor="middle" x="2643" y="-99.8" font-family="Times,serif" font-size="14.00">DoctorsCreateComponent</text>
</g>
<!-- DoctorsCreateComponent&#45;&gt;AppModule -->
<g id="edge10" class="edge">
<title>DoctorsCreateComponent&#45;&gt;AppModule</title>
<path fill="none" stroke="black" d="M2643,-122.03C2643,-138.4 2643,-160 2643,-160 2643,-160 2120.74,-160 2120.74,-160"/>
<polygon fill="black" stroke="black" points="2120.74,-156.5 2110.74,-160 2120.74,-163.5 2120.74,-156.5"/>
</g>
<!-- FooterComponent -->
<g id="node10" class="node">
<title>FooterComponent</title>
<polygon fill="#ffffb3" stroke="black" points="2543.88,-122 2426.12,-122 2426.12,-86 2543.88,-86 2543.88,-122"/>
<text text-anchor="middle" x="2485" y="-99.8" font-family="Times,serif" font-size="14.00">FooterComponent</text>
</g>
<!-- FooterComponent&#45;&gt;AppModule -->
<g id="edge11" class="edge">
<title>FooterComponent&#45;&gt;AppModule</title>
<path fill="none" stroke="black" d="M2485,-122.24C2485,-137.57 2485,-157 2485,-157 2485,-157 2120.79,-157 2120.79,-157"/>
<polygon fill="black" stroke="black" points="2120.79,-153.5 2110.79,-157 2120.79,-160.5 2120.79,-153.5"/>
</g>
<!-- HomeComponent -->
<g id="node11" class="node">
<title>HomeComponent</title>
<polygon fill="#ffffb3" stroke="black" points="2407.55,-122 2292.45,-122 2292.45,-86 2407.55,-86 2407.55,-122"/>
<text text-anchor="middle" x="2350" y="-99.8" font-family="Times,serif" font-size="14.00">HomeComponent</text>
</g>
<!-- HomeComponent&#45;&gt;AppModule -->
<g id="edge12" class="edge">
<title>HomeComponent&#45;&gt;AppModule</title>
<path fill="none" stroke="black" d="M2350,-122.05C2350,-136.37 2350,-154 2350,-154 2350,-154 2120.77,-154 2120.77,-154"/>
<polygon fill="black" stroke="black" points="2120.77,-150.5 2110.77,-154 2120.77,-157.5 2120.77,-150.5"/>
</g>
<!-- ListAppointmentDoctorComponent -->
<g id="node12" class="node">
<title>ListAppointmentDoctorComponent</title>
<polygon fill="#ffffb3" stroke="black" points="2273.87,-122 2058.13,-122 2058.13,-86 2273.87,-86 2273.87,-122"/>
<text text-anchor="middle" x="2166" y="-99.8" font-family="Times,serif" font-size="14.00">ListAppointmentDoctorComponent</text>
</g>
<!-- ListAppointmentDoctorComponent&#45;&gt;AppModule -->
<g id="edge13" class="edge">
<title>ListAppointmentDoctorComponent&#45;&gt;AppModule</title>
<path fill="none" stroke="black" d="M2084.45,-122.11C2084.45,-122.11 2084.45,-140.99 2084.45,-140.99"/>
<polygon fill="black" stroke="black" points="2080.95,-140.99 2084.45,-150.99 2087.95,-140.99 2080.95,-140.99"/>
</g>
<!-- ListNewsComponent -->
<g id="node13" class="node">
<title>ListNewsComponent</title>
<polygon fill="#ffffb3" stroke="black" points="2040.48,-122 1905.52,-122 1905.52,-86 2040.48,-86 2040.48,-122"/>
<text text-anchor="middle" x="1973" y="-99.8" font-family="Times,serif" font-size="14.00">ListNewsComponent</text>
</g>
<!-- ListNewsComponent&#45;&gt;AppModule -->
<g id="edge14" class="edge">
<title>ListNewsComponent&#45;&gt;AppModule</title>
<path fill="none" stroke="black" d="M2033.83,-122.11C2033.83,-122.11 2033.83,-140.99 2033.83,-140.99"/>
<polygon fill="black" stroke="black" points="2030.33,-140.99 2033.83,-150.99 2037.33,-140.99 2030.33,-140.99"/>
</g>
<!-- ListPatientsComponent -->
<g id="node14" class="node">
<title>ListPatientsComponent</title>
<polygon fill="#ffffb3" stroke="black" points="1887.94,-122 1740.06,-122 1740.06,-86 1887.94,-86 1887.94,-122"/>
<text text-anchor="middle" x="1814" y="-99.8" font-family="Times,serif" font-size="14.00">ListPatientsComponent</text>
</g>
<!-- ListPatientsComponent&#45;&gt;AppModule -->
<g id="edge15" class="edge">
<title>ListPatientsComponent&#45;&gt;AppModule</title>
<path fill="none" stroke="black" d="M1814,-122.05C1814,-136.37 1814,-154 1814,-154 1814,-154 2017.18,-154 2017.18,-154"/>
<polygon fill="black" stroke="black" points="2017.18,-157.5 2027.18,-154 2017.18,-150.5 2017.18,-157.5"/>
</g>
<!-- LoginComponent -->
<g id="node15" class="node">
<title>LoginComponent</title>
<polygon fill="#ffffb3" stroke="black" points="1722.28,-122 1607.72,-122 1607.72,-86 1722.28,-86 1722.28,-122"/>
<text text-anchor="middle" x="1665" y="-99.8" font-family="Times,serif" font-size="14.00">LoginComponent</text>
</g>
<!-- LoginComponent&#45;&gt;AppModule -->
<g id="edge16" class="edge">
<title>LoginComponent&#45;&gt;AppModule</title>
<path fill="none" stroke="black" d="M1665,-122.24C1665,-137.57 1665,-157 1665,-157 1665,-157 2017.29,-157 2017.29,-157"/>
<polygon fill="black" stroke="black" points="2017.29,-160.5 2027.29,-157 2017.29,-153.5 2017.29,-160.5"/>
</g>
<!-- MedicamentsComponent -->
<g id="node16" class="node">
<title>MedicamentsComponent</title>
<polygon fill="#ffffb3" stroke="black" points="1589.25,-122 1432.75,-122 1432.75,-86 1589.25,-86 1589.25,-122"/>
<text text-anchor="middle" x="1511" y="-99.8" font-family="Times,serif" font-size="14.00">MedicamentsComponent</text>
</g>
<!-- MedicamentsComponent&#45;&gt;AppModule -->
<g id="edge17" class="edge">
<title>MedicamentsComponent&#45;&gt;AppModule</title>
<path fill="none" stroke="black" d="M1511,-122.03C1511,-138.4 1511,-160 1511,-160 1511,-160 2017.06,-160 2017.06,-160"/>
<polygon fill="black" stroke="black" points="2017.06,-163.5 2027.06,-160 2017.06,-156.5 2017.06,-163.5"/>
</g>
<!-- PatientsCreateComponent -->
<g id="node17" class="node">
<title>PatientsCreateComponent</title>
<polygon fill="#ffffb3" stroke="black" points="1415.19,-122 1252.81,-122 1252.81,-86 1415.19,-86 1415.19,-122"/>
<text text-anchor="middle" x="1334" y="-99.8" font-family="Times,serif" font-size="14.00">PatientsCreateComponent</text>
</g>
<!-- PatientsCreateComponent&#45;&gt;AppModule -->
<g id="edge18" class="edge">
<title>PatientsCreateComponent&#45;&gt;AppModule</title>
<path fill="none" stroke="black" d="M1334,-122.02C1334,-139.37 1334,-163 1334,-163 1334,-163 2017.11,-163 2017.11,-163"/>
<polygon fill="black" stroke="black" points="2017.11,-166.5 2027.11,-163 2017.11,-159.5 2017.11,-166.5"/>
</g>
<!-- ProfileComponent -->
<g id="node18" class="node">
<title>ProfileComponent</title>
<polygon fill="#ffffb3" stroke="black" points="1234.93,-122 1115.07,-122 1115.07,-86 1234.93,-86 1234.93,-122"/>
<text text-anchor="middle" x="1175" y="-99.8" font-family="Times,serif" font-size="14.00">ProfileComponent</text>
</g>
<!-- ProfileComponent&#45;&gt;AppModule -->
<g id="edge19" class="edge">
<title>ProfileComponent&#45;&gt;AppModule</title>
<path fill="none" stroke="black" d="M1194.91,-122.3C1194.91,-140.27 1194.91,-165 1194.91,-165 1194.91,-165 2017.14,-165 2017.14,-165"/>
<polygon fill="black" stroke="black" points="2017.14,-168.5 2027.14,-165 2017.14,-161.5 2017.14,-168.5"/>
</g>
<!-- ProfileComponent&#45;&gt;AppModule -->
<g id="edge20" class="edge">
<title>ProfileComponent&#45;&gt;AppModule</title>
<path fill="none" stroke="black" d="M1155.09,-122.17C1155.09,-141.09 1155.09,-168 1155.09,-168 1155.09,-168 2017.06,-168 2017.06,-168"/>
<polygon fill="black" stroke="black" points="2017.06,-171.5 2027.06,-168 2017.06,-164.5 2017.06,-171.5"/>
</g>
<!-- ProfileDoctorComponent -->
<g id="node19" class="node">
<title>ProfileDoctorComponent</title>
<polygon fill="#ffffb3" stroke="black" points="1097.3,-122 938.7,-122 938.7,-86 1097.3,-86 1097.3,-122"/>
<text text-anchor="middle" x="1018" y="-99.8" font-family="Times,serif" font-size="14.00">ProfileDoctorComponent</text>
</g>
<!-- ProfileDoctorComponent&#45;&gt;AppModule -->
<g id="edge21" class="edge">
<title>ProfileDoctorComponent&#45;&gt;AppModule</title>
<path fill="none" stroke="black" d="M1018,-122.31C1018,-142.15 1018,-171 1018,-171 1018,-171 2017.15,-171 2017.15,-171"/>
<polygon fill="black" stroke="black" points="2017.15,-174.5 2027.15,-171 2017.15,-167.5 2017.15,-174.5"/>
</g>
<!-- ProfilePatientsDoctorComponent -->
<g id="node20" class="node">
<title>ProfilePatientsDoctorComponent</title>
<polygon fill="#ffffb3" stroke="black" points="921.13,-122 718.87,-122 718.87,-86 921.13,-86 921.13,-122"/>
<text text-anchor="middle" x="820" y="-99.8" font-family="Times,serif" font-size="14.00">ProfilePatientsDoctorComponent</text>
</g>
<!-- ProfilePatientsDoctorComponent&#45;&gt;AppModule -->
<g id="edge22" class="edge">
<title>ProfilePatientsDoctorComponent&#45;&gt;AppModule</title>
<path fill="none" stroke="black" d="M820,-122.03C820,-142.77 820,-174 820,-174 820,-174 2017.09,-174 2017.09,-174"/>
<polygon fill="black" stroke="black" points="2017.09,-177.5 2027.09,-174 2017.09,-170.5 2017.09,-177.5"/>
</g>
<!-- AppComponent  -->
<g id="node23" class="node">
<title>AppComponent </title>
<polygon fill="#80b1d3" stroke="black" points="2123.44,-252 2014.56,-252 2014.56,-216 2123.44,-216 2123.44,-252"/>
<text text-anchor="middle" x="2069" y="-229.8" font-family="Times,serif" font-size="14.00">AppComponent </text>
</g>
<!-- AppModule&#45;&gt;AppComponent  -->
<g id="edge24" class="edge">
<title>AppModule&#45;&gt;AppComponent </title>
<path fill="none" stroke="black" stroke-dasharray="1,5" d="M2069,-187.11C2069,-187.11 2069,-205.99 2069,-205.99"/>
<polygon fill="black" stroke="black" points="2065.5,-205.99 2069,-215.99 2072.5,-205.99 2065.5,-205.99"/>
</g>
<!-- AppRoutingModule -->
<g id="node22" class="node">
<title>AppRoutingModule</title>
<polygon fill="#8dd3c7" stroke="black" points="695.27,-122 692.27,-126 671.27,-126 668.27,-122 566.73,-122 566.73,-86 695.27,-86 695.27,-122"/>
<text text-anchor="middle" x="631" y="-99.8" font-family="Times,serif" font-size="14.00">AppRoutingModule</text>
</g>
<!-- AppRoutingModule&#45;&gt;AppModule -->
<g id="edge23" class="edge">
<title>AppRoutingModule&#45;&gt;AppModule</title>
<path fill="none" stroke="black" d="M631,-122.17C631,-143.5 631,-176 631,-176 631,-176 2017.13,-176 2017.13,-176"/>
<polygon fill="black" stroke="black" points="2017.13,-179.5 2027.13,-176 2017.13,-172.5 2017.13,-179.5"/>
</g>
<!-- DoctorAPIService -->
<g id="node24" class="node">
<title>DoctorAPIService</title>
<ellipse fill="#fdb462" stroke="black" cx="461" cy="-104" rx="82.22" ry="18"/>
<text text-anchor="middle" x="461" y="-99.8" font-family="Times,serif" font-size="14.00">DoctorAPIService</text>
</g>
<!-- DoctorAPIService&#45;&gt;AppModule -->
<g id="edge25" class="edge">
<title>DoctorAPIService&#45;&gt;AppModule</title>
<path fill="none" stroke="black" d="M461,-122.16C461,-144.35 461,-179 461,-179 461,-179 2017.23,-179 2017.23,-179"/>
<polygon fill="black" stroke="black" points="2017.23,-182.5 2027.23,-179 2017.23,-175.5 2017.23,-182.5"/>
</g>
<!-- MedicamentService -->
<g id="node25" class="node">
<title>MedicamentService</title>
<ellipse fill="#fdb462" stroke="black" cx="272" cy="-104" rx="88.02" ry="18"/>
<text text-anchor="middle" x="272" y="-99.8" font-family="Times,serif" font-size="14.00">MedicamentService</text>
</g>
<!-- MedicamentService&#45;&gt;AppModule -->
<g id="edge26" class="edge">
<title>MedicamentService&#45;&gt;AppModule</title>
<path fill="none" stroke="black" d="M272,-122.09C272,-145.13 272,-182 272,-182 272,-182 2017.23,-182 2017.23,-182"/>
<polygon fill="black" stroke="black" points="2017.23,-185.5 2027.23,-182 2017.23,-178.5 2017.23,-185.5"/>
</g>
<!-- PatientsService -->
<g id="node26" class="node">
<title>PatientsService</title>
<ellipse fill="#fdb462" stroke="black" cx="95" cy="-104" rx="70.64" ry="18"/>
<text text-anchor="middle" x="95" y="-99.8" font-family="Times,serif" font-size="14.00">PatientsService</text>
</g>
<!-- PatientsService&#45;&gt;AppModule -->
<g id="edge27" class="edge">
<title>PatientsService&#45;&gt;AppModule</title>
<path fill="none" stroke="black" d="M95,-122.38C95,-146.28 95,-185 95,-185 95,-185 2017.31,-185 2017.31,-185"/>
<polygon fill="black" stroke="black" points="2017.31,-188.5 2027.31,-185 2017.31,-181.5 2017.31,-188.5"/>
</g>
</g>
</svg>
